<svg width="100" height="86" fill="none" xmlns="http://www.w3.org/2000/svg"><g clip-path="url(#a)" fill="#314A59"><path d="M100 47.202c-.067-4.345-3.6-8.394-6.767-11.159.6-.329 1.1-.79 1.567-1.316 1.133-1.35 1.633-3.127 1.3-4.839-1.5-8.328-7.067-15.964-15.7-21.461C71.9 2.995 60.966 0 49.666 0S27.4 2.995 18.866 8.427c-8.6 5.53-14.2 13.166-15.666 21.494a5.907 5.907 0 0 0 1.3 4.839A6.99 6.99 0 0 0 6 36.043C1.866 40.191-.467 45.918.066 49.803c.4 2.633 2.134 4.476 4.667 4.904 1.3.23 2.6.197 3.833.033A7.703 7.703 0 0 0 6.7 59.776c0 1.317.333 2.568.9 3.654-2.8 1.218-4.8 3.983-4.8 7.209v4.015c0 6.123 5.033 11.093 11.233 11.093h70.933c6.2 0 11.234-4.97 11.234-11.093V70.64c0-3.226-1.967-5.991-4.8-7.21.6-1.085.9-2.336.9-3.653 0-1.35-.334-2.6-.967-3.72 1.3-.131 2.7-.592 4.167-1.546 3.8-2.37 4.533-5.267 4.5-7.308zM8 30.744c2.666-14.78 20.566-25.938 41.666-25.938 21.1 0 39.034 11.159 41.667 25.938.067.46-.133.757-.267.922a1.158 1.158 0 0 1-.9.427H9.133c-.467 0-.767-.263-.9-.427-.133-.132-.333-.461-.233-.922zm32.3 21.165c.366-.494.7-.987 1.033-1.481 1.3-1.876 3.1-4.444 4.133-4.575 3.234-.395 3.967 1.152 5.4 5.99L40.3 51.91zM36 56.748h16.566c.967 2.008 2.334 3.818 4.634 4.872.933.427 1.8.625 2.666.625.667 0 1.3-.132 1.9-.362 2-.823 3.234-2.765 4.234-5.135h18.5c1.666 0 3.033 1.35 3.033 2.995 0 1.646-1.367 2.996-3.033 2.996H14.633c-1.667 0-3.033-1.35-3.033-2.996s1.366-2.995 3.033-2.995H25.1c.233.395.5.79.833 1.119.767.757 2.133 1.646 4.367 1.415 2.2-.197 4.1-1.185 5.7-2.534zm31.933-4.872c1.2-2.962 2.667-5.826 5.1-6.583 2.3-.757 4.433 1.218 7.633 4.575.634.659 1.3 1.35 2 2.008H67.933zm-43.467-4.97c-.2 1.646-.366 3.39-.366 5.003l-8.367-.066c2.433-1.514 4.633-3.357 6.533-4.97.767-.625 1.667-1.383 2.434-2.008-.067.724-.167 1.448-.234 2.04zM91.4 74.62c0 3.457-2.867 6.288-6.367 6.288H14.1c-3.5 0-6.367-2.831-6.367-6.288v-4.015c0-1.68 1.4-3.062 3.1-3.062H88.3c1.7 0 3.1 1.383 3.1 3.062v4.016zm1.533-24.16c-2.633 1.712-4.4.56-8.767-3.95-3.233-3.358-7.266-7.57-12.666-5.826-5.234 1.678-7.3 7.175-8.967 11.586-.667 1.81-1.8 4.839-2.6 5.135-.067.033-.3 0-.667-.164-2.033-.955-2.866-3.72-3.7-6.65-1.2-4.114-2.8-9.611-9.2-9.611-.466 0-.966.033-1.5.099-3.2.395-5.3 3.39-7.566 6.616-2.234 3.193-4.567 6.517-7.534 6.814h-.2c-.166 0-.233-.033-.233-.033-.8-.757-.267-5.333-.067-7.044.4-3.49.7-6.024-.866-7.538-.734-.692-1.7-.988-2.734-.856-1.966.263-3.933 1.909-6.633 4.18-3.7 3.193-8.833 7.505-13.467 6.715-.3-.066-.566-.099-.666-.823-.434-3.028 2.9-9.513 7.866-12.212H86.4c3.7 2.403 8.666 7.044 8.733 10.369 0 .757-.2 1.942-2.2 3.193z"/><path d="M27.334 20.079c.433-.23.9-.395 1.333-.527.433-.131.866-.197 1.166-.164.267.033.567 0 .867-.132a1.531 1.531 0 0 0 .733-2.04 1.568 1.568 0 0 0-2.066-.725l-.3.132c-.667.296-1.134.691-1.567 1.086-.433.395-.8.823-1.1 1.284a8.424 8.424 0 0 0-.866 1.35c-.267.46-.5.921-.7 1.415.4-.33.8-.659 1.233-.922.4-.263.833-.527 1.267-.757zM67.933 19.42c.334-.032.767.034 1.167.165.434.132.867.296 1.334.527.433.23.866.46 1.3.757.433.263.833.593 1.233.922-.2-.494-.433-.955-.7-1.416-.267-.46-.567-.921-.867-1.35-.333-.427-.7-.855-1.1-1.283-.433-.395-.933-.79-1.566-1.086l-.3-.132c-.267-.132-.534-.165-.834-.132a1.533 1.533 0 0 0-1.366 1.712c.066.823.833 1.415 1.7 1.317zM48.333 19.19c.167.296.3.626.434.955.233.658.433 1.382.466 2.107.434-.626.734-1.35 1-2.107.134-.395.234-.79.3-1.185.067-.428.134-.856.134-1.317v-.296a1.52 1.52 0 0 0-.4-1.02c-.6-.659-1.6-.692-2.267-.132-.667.592-.7 1.58-.133 2.238.133.198.3.461.466.757z"/></g><defs><clipPath id="a"><path fill="#fff" d="M0 0h100v85.714H0z"/></clipPath></defs></svg>