<svg width="53" height="100" fill="none" xmlns="http://www.w3.org/2000/svg"><g clip-path="url(#a)" fill="#314A59"><path d="M17.533 16.867c3.48 0 6.3-1.344 6.3-3 0-1.657-2.82-3-6.3-3-3.479 0-6.3 1.343-6.3 3 0 1.656 2.821 3 6.3 3z"/><path d="M26.033 0C11.2 0 0 5.967 0 13.867v72.266C0 94.033 11.2 100 26.033 100c14.834 0 26.034-5.967 26.034-13.867V13.867C52.067 5.967 40.867 0 26.033 0zM46.7 86.133c0 4.034-8.833 8.534-20.7 8.534-11.867 0-20.667-4.5-20.667-8.534V70.467C14.1 77.267 33.3 80.9 46.7 77.2v8.933zm0-47.4C38.367 45.5 18.1 51.167 5.333 52.5v-30c4.667 3.233 12.067 5.267 20.7 5.267 8.634 0 16-2 20.7-5.267v16.233H46.7zM26.033 22.4c-11.833 0-20.7-4.5-20.7-8.533 0-4.034 8.867-8.534 20.7-8.534 11.834 0 20.7 4.5 20.7 8.534 0 4.033-8.866 8.533-20.7 8.533z"/></g><defs><clipPath id="a"><path fill="#fff" d="M0 0h52.067v100H0z"/></clipPath></defs></svg>