<svg width="100" height="100" fill="none" xmlns="http://www.w3.org/2000/svg"><g clip-path="url(#a)" fill="#314A59"><path d="M51.7 28c-11 0-20.2-3.1-24.7-7.9v68.5c0 6.5 11 11.8 24.7 11.8s24.7-5.3 24.7-11.8V20.1C71.9 24.8 62.7 28 51.7 28zm21 45.4c-13.8 4.5-35.5.4-42.1-6.8V54.4c12.9-.7 36.7-6.7 42.1-13.5v32.5z"/><path d="M74.6 10c-.2-.4-.3-.7-.6-1.1-.3-.5-.8-1-1.3-1.5-.3-.3-.7-.6-1.1-1-.2-.2-.4-.3-.6-.5C66.8 2.9 59.7 1 51.6 1c-7.8 0-14.7 1.8-18.9 4.6-2.8 1.8-4.4 4.1-4.4 6.6 0 6.2 10.5 11.2 23.4 11.2 12.9 0 23.4-5 23.4-11.2 0-.8-.2-1.5-.5-2.2zm-33.3 5.6c-2.6 0-4.7-1-4.7-2.3 0-1.3 2.1-2.3 4.7-2.3s4.7 1 4.7 2.3c0 1.3-2.1 2.3-4.7 2.3z"/></g><defs><clipPath id="a"><path fill="#fff" d="M0 0h100v100H0z"/></clipPath></defs></svg>