<svg width="100" height="100" fill="none" xmlns="http://www.w3.org/2000/svg"><path d="m82.891 40.22-.6.3c-.4.2-.8.5-1.2.7-.1 0-.1.1-.2.1-.4.2-.8.5-1.3.7 0 0-.1 0-.1.1-.9.5-1.9 1-3 1.5-1.7.8-3.6 1.7-5.6 2.5-2 .8-4.1 1.6-6.2 2.3h-.1l-3 .9c-.2 0-.3.1-.5.1-.9.2-1.8.5-2.7.7-1 .2-2 .4-2.9.6-1.8.3-3.5.5-5.3.7-.9.1-1.9.1-2.8.1-.8 0-1.6 0-2.5-.1-.2 0-.5 0-.7-.1-.6-.1-1.2-.1-1.8-.2-.2 0-.4-.1-.7-.1-.7-.1-1.5-.3-2.2-.5h-.2c-.9-.2-1.7-.4-2.6-.7-2.1-.6-4.2-1.4-6.2-2.3-2-.9-3.9-1.8-5.7-2.8-.1-.1-.2-.1-.3-.2-.4-.2-.7-.4-1-.6-.1-.1-.3-.2-.4-.3-.3-.2-.6-.4-.9-.5-.2-.1-.4-.2-.5-.3-.3-.2-.5-.3-.8-.5-.9-.5-1.7-1.1-2.4-1.6-1.7-1.2-4 .3-3.7 2.4l8.2 54.6c.9.8 1.5 1.3 2.4 2h50.5c.9-.8 1.5-1.3 2.4-2l8.3-55.2c.1-1.9-2-3.3-3.7-2.3z" fill="#314A59"/><path d="M17.091 35.22c1.5 0 3 .4 4.2 1.3 1.9 1.3 4.4 2.8 7.2 4.3l-7.1-23.8-.8-1.6c-.7-1.5-2.6-2.1-4.1-1.4l-5.8 2.8c-1.5.7-2.1 2.6-1.4 4.1l7.1 14.3h.7zM34.891 43.72c4 1.6 8.3 2.7 12.5 2.7h1.3l-12.8-43c-.5-1.6-2.2-2.5-3.8-2l-6.1 1.8c-1.6.5-2.5 2.2-2 3.8l10.9 36.7zM58.491 44.82h.1c.1 0 .3-.1.4-.1 4.5-1.2 8.7-2.8 12.4-4.5l3.6-36.3c.2-1.7-1.1-3.2-2.7-3.3l-6.4-.6c-1.7-.2-3.2 1.1-3.3 2.7l-3.9 39.4-4.7-38.2c-.2-1.7-1.7-2.9-3.4-2.6l-6.3.8c-1.3.2-2.3 1.2-2.6 2.4l12.3 41.3c1.5-.3 3-.7 4.5-1zM88.791 13.02l-6-2.8c-1.1-.5-2.3-.3-3.1.3l-2.7 26.9c1.3-.7 2.4-1.3 3.3-1.8 1.2-.7 2.5-1 3.8-1h.2l6.1-17.9c.5-1.4-.2-3.1-1.6-3.7z" fill="#314A59"/></svg>