<svg width="81" height="100" fill="none" xmlns="http://www.w3.org/2000/svg"><g clip-path="url(#a)"><path d="m76.35 14.9-4.428-2.1a6.39 6.39 0 0 0-2.83-.633 7.27 7.27 0 0 0-2.098.333l.466-4.833A6.665 6.665 0 0 0 61.5.433L56.805 0h-.632c-3.43 0-6.26 2.6-6.593 6l-.067.867c-.533-.134-1.099-.234-1.665-.234-.166 0-.333 0-.5.034L42.655 7c-.333.033-.666.067-1 .167A6.599 6.599 0 0 0 36.66 4.9c-.266 0-.566.033-.832.067l-4.662.6a6.73 6.73 0 0 0-3.563 1.6c-1.232-1.434-3.063-2.334-5.028-2.334-.632 0-1.298.1-1.898.267L16.15 6.467C12.653 7.5 10.655 11.2 11.687 14.7l.033.1c-.3-.033-.599-.067-.899-.067-.999 0-1.997.234-2.896.667l-4.23 2.067C.434 19.1-.932 23.067.666 26.333l9.99 20.567a2.83 2.83 0 0 0-.4 1.8l7.326 49.033A2.655 2.655 0 0 0 20.21 100h42.954a2.68 2.68 0 0 0 2.63-2.267L73.121 48.7c.133-.9-.2-1.833-.932-2.433a1.01 1.01 0 0 0-.233-.167L79.78 23c1.098-3.167-.4-6.667-3.43-8.1zM53.643 6.4a2.56 2.56 0 0 1 2.53-2.3h.234l4.695.433A2.516 2.516 0 0 1 63.365 7.3l-1 10.7-6.192 18.2-1.765-23.433c-.1-1.167-.466-2.234-1.099-3.134l.333-3.233zm-12.72 6 .2-.3c.133-.167.267-.3.433-.433.266-.2.566-.367.866-.434l.5-.1 4.694-.333h.2c.466 0 .899.133 1.299.367.166.1.3.2.466.333l.033.033.166.167s.034.033.034.067c.033.066.1.133.133.2l.033.033c.067.067.1.167.133.233v.034c.034.066.067.133.1.233 0 .033.034.067.034.067.033.066.033.133.066.2 0 .033 0 .066.034.066.033.1.033.2.033.3l2.497 33.034-1.365 4.066a78.744 78.744 0 0 1-8.025.934l-1.099-14.7-1.764-22.634a2.287 2.287 0 0 1 .3-1.433zm-9.256-2.8 4.661-.6c.1 0 .2-.033.333-.033.5 0 .966.133 1.365.4a6.587 6.587 0 0 0-1.498 4.733l2.131 28.133-9.123-30.666c.233-1 1.065-1.8 2.13-1.967zm-14.318.8 4.528-1.367c.233-.066.5-.1.733-.1 1.098 0 2.097.7 2.43 1.8l12.02 40.5c-3.662-.166-7.325-.8-10.654-1.533l-1.632-5.467-7.192-24.2-1.931-6.5a2.521 2.521 0 0 1 1.698-3.133zM5.528 21.167 9.755 19.1c.366-.167.732-.267 1.099-.267.932 0 1.831.534 2.264 1.434l.6 1.266 8.024 27c-3.13-.9-5.594-1.766-6.893-2.233L4.362 24.567c-.633-1.267-.1-2.767 1.165-3.4zM60.867 94.7H22.475l-1.732-11.6c4.295 1 11.654 2.4 18.846 2.4 8.791 0 18.081-1.567 23.042-2.567L60.868 94.7zm2.43-16.067C59.07 79.5 48.88 81.4 39.59 81.4c-7.725 0-15.883-1.8-19.479-2.7l-.765-5.033c3.895.966 12.186 2.733 20.244 2.733 9.69 0 20.045-1.933 24.44-2.833l-.732 5.066zm1.399-9.4c-2.73.6-14.518 3.067-25.107 3.067-9.023 0-18.646-2.433-20.91-3.033l-2.531-16.934c5.161 1.734 14.185 4.234 23.042 4.234 10.755 0 22.176-2.8 28.07-4.5l-2.564 17.166zM75.918 21.7l-8.424 24.8c-2.198.667-5.894 1.7-10.322 2.633l-.2-2.466L60.734 35.6l5.195-15.3.766-2.3a2.56 2.56 0 0 1 2.397-1.733c.366 0 .733.066 1.066.233l4.395 2.067c1.198.6 1.764 1.933 1.365 3.133z" fill="#314A59"/></g><defs><clipPath id="a"><path fill="#fff" d="M0 0h80.147v100H0z"/></clipPath></defs></svg>