<svg width="179" height="273" fill="none" xmlns="http://www.w3.org/2000/svg"><path d="M90.577 211.671c-16.357-45.851.825-90.292-28.458-182.595 30.348 30.7 50.162 171.089 41.314 184.714" fill="#8CC63F"/><path d="M127.587 199.722c3.592-52.815-28.825-93.883-25.558-199.088-23.48 41.306-1.585 193.743 12.244 205.237" fill="#8CC63F"/><path d="M130.32 204.712c20.716-48.156 5.337-97.027 43.184-194.206-34.666 30.856-65.559 180.355-57.242 195.658M69.104 215.299C39.54 171.293 40 72 0 63c34.5-14.5 96.257 132.8 86.9 150.383" fill="#8CC63F"/><path d="M128.631 182.901C125.967 160.959 189 76 141.748 37.5c51.752 31.5-4.919 134.533 0 151.143l-13.117-5.742zM101.868 189.484c3.715-24.9-72.584-106.35-42.007-168.484-36.292 41.888 30.577 156.15 23.718 175l18.289-6.516z" fill="#8CC63F"/><path d="M143.07 200.537H54.121l20.495 72.184h47.754l20.7-72.184zM147.169 176.749H50.022v23.583h97.147v-23.583z" fill="#F15A24"/><path opacity=".3" d="m54.121 200.537.82 3.281h87.104l1.025-3.281H54.121z" fill="#000"/></svg>