<svg width="100" height="100" fill="none" xmlns="http://www.w3.org/2000/svg"><g clip-path="url(#a)"><path d="M83.797.212c-8.3-1.4-16.2 4.3-17.6 12.6-2.3 14.1-8.4 27-17.5 37.1-9.1 10-20.8 16.9-33.9 20-8.2 1.9-13.3 10.2-11.4 18.4 1.7 7 7.9 11.8 14.9 11.8 1.2 0 2.3-.1 3.5-.4 19.1-4.5 36.2-14.6 49.5-29.2 13.1-14.5 21.8-32.7 25.1-52.6 1.3-8.4-4.3-16.3-12.6-17.7zm-.7 36.6c-2.7 3.8-6.6 4.3-9.8 4.8-2.9.4-5.3.8-7.1 3.1-1.4 1.8-.8 4.7-.1 7.9.8 4.1 1.9 9.2-2.1 12.8-3.7 3.4-7.9 2.7-11.6 2.1-3.2-.5-6-.9-8.6.8-2.4 1.6-2.8 4-3.3 7.9-.4 3.7-.9 7.8-5 10.1-2.8 1.5-5 2-6.9 2-1.8 0-3.2-.4-4.6-.8-2-.6-3.8-1.1-6.8-.5-1.4.3-2.7-.7-3-2-.3-1.4.7-2.7 2-3 4.1-.8 6.9 0 9.1.6 2.6.7 4.1 1.2 7.7-.8 1.7-.9 2-2.9 2.4-6.2.4-3.8 1-8.5 5.5-11.5 4.2-2.8 8.6-2.1 12.1-1.5 3.5.6 5.6.8 7.4-.8 1.7-1.6 1.3-4.1.5-8.1-.8-3.9-1.7-8.3 1.1-12 3.1-4 7.1-4.6 10.4-5.1 3.1-.4 5-.8 6.4-2.7 1.1-1.6.6-2.8-1.1-5.9-1.8-3.3-4.4-7.7-1.8-13.5.6-1.3 2.1-1.8 3.4-1.3 1.3.6 1.8 2.1 1.3 3.4-1.5 3.4-.1 5.9 1.6 8.9 1.8 3.1 4 7 .9 11.3z" fill="#314A59"/></g><defs><clipPath id="a"><path fill="#fff" d="M0 0h100v100H0z"/></clipPath></defs></svg>