<svg width="94" height="100" fill="none" xmlns="http://www.w3.org/2000/svg"><g clip-path="url(#a)" fill="#314A59"><path d="M75.3 4.967a12.6 12.6 0 0 1 2.23.2c7.486 1.233 12.544 8.3 11.313 15.8-2.962 17.966-10.748 34.366-22.527 47.4C54.437 81.533 39.03 90.633 21.828 94.7c-1.065.267-2.13.367-3.16.367-6.223 0-11.88-4.267-13.344-10.6-1.73-7.4 2.828-14.8 10.215-16.567 11.78-2.767 22.294-9 30.446-18 8.22-9.1 13.676-20.633 15.772-33.367A13.714 13.714 0 0 1 75.3 4.967zM75.3 0v4.967V0a18.657 18.657 0 0 0-12.012 4.4 18.812 18.812 0 0 0-6.422 11.3c-1.93 11.8-6.988 22.467-14.574 30.867-7.454 8.266-17.103 13.966-27.917 16.533-4.858 1.133-8.984 4.133-11.613 8.367C.133 75.7-.665 80.733.466 85.6a18.532 18.532 0 0 0 6.688 10.433C10.415 98.6 14.508 100 18.667 100c1.43 0 2.895-.167 4.292-.5C41.16 95.2 57.4 85.567 69.977 71.667c12.445-13.734 20.63-31 23.758-49.934C95.398 11.533 88.51 1.9 78.328.233 77.33.1 76.298 0 75.3 0z"/><path d="M27.119 86.1c-1.664 0-3.028-.4-4.326-.767-1.83-.533-3.594-1.033-6.389-.5-1.297.234-2.562-.633-2.795-1.933-.233-1.3.632-2.567 1.93-2.8 3.926-.733 6.489 0 8.585.6 2.429.7 3.893 1.1 7.254-.733 1.597-.867 1.863-2.7 2.23-5.834.398-3.6.93-8.066 5.223-10.9 3.993-2.633 8.12-1.966 11.447-1.466 3.327.533 5.29.733 6.987-.8 1.63-1.5 1.231-3.867.466-7.634-.765-3.7-1.597-7.9.998-11.3 2.895-3.8 6.722-4.333 9.783-4.8 2.961-.433 4.692-.766 6.022-2.6 1.065-1.466.6-2.633-1.064-5.6-1.73-3.1-4.126-7.3-1.664-12.733.532-1.2 1.963-1.733 3.161-1.2 1.198.533 1.73 1.967 1.198 3.167-1.43 3.2-.1 5.6 1.464 8.4 1.664 2.966 3.76 6.7.765 10.8-2.595 3.566-6.255 4.066-9.217 4.5-2.762.4-4.958.7-6.655 2.933-1.297 1.7-.732 4.5-.1 7.433.8 3.9 1.764 8.734-1.93 12.134-3.46 3.166-7.453 2.533-10.947 2-3.028-.467-5.623-.9-8.085.733-2.263 1.5-2.695 3.8-3.095 7.433-.399 3.467-.832 7.4-4.691 9.5-2.662 1.5-4.759 1.967-6.555 1.967z"/></g><defs><clipPath id="a"><path fill="#fff" d="M0 0h93.86v100H0z"/></clipPath></defs></svg>