<svg width="1440" height="362" fill="none" xmlns="http://www.w3.org/2000/svg"><path d="m-85 432 198.216-209.375H1328.3L1525 432H-85z" fill="#C69C6D"/><path d="M819.277 142.213c-2.529-3.54-5.057-7.08-8.091-10.115-17.698-19.724-43.317-32.199-72.14-32.199-28.822 0-54.442 12.307-72.308 32.199-2.866 3.203-5.562 6.575-7.922 10.115-10.787 15.509-16.855 34.39-16.855 54.619 0 17.364 4.719 33.716 12.641 47.877 7.585 13.149 18.035 24.444 30.676 32.873 12.305 8.26 26.8 13.655 42.307 15.509 3.877.337 7.753.674 11.461.674 4.046 0 7.754-.337 11.63-.674 15.507-1.854 30.002-7.249 42.307-15.678 12.473-8.429 23.091-19.724 30.507-32.704 8.091-14.161 12.642-30.513 12.642-47.877 0-20.061-6.068-38.941-16.855-54.619z" fill="#C9974B"/><path d="M707.696 288.033c-1.686-1.854-2.866-3.371-2.866-5.9V127.546l13.822-19.892h40.452l13.99 20.23V282.47c0 2.529-1.18 4.046-2.866 5.901-3.371 3.54-5.562 8.091-6.236 13.149h50.734c-.169-.675-.337-1.349-.337-2.023-.506-2.866 1.179-4.889 3.876-7.418 25.957-22.421 42.475-55.631 42.475-92.549 0-66.926-53.768-121.377-120.514-122.557l.169-.337c-67.758 0-122.706 54.788-122.706 122.556 0 36.919 16.518 70.129 42.475 92.55 2.529 2.529 4.383 4.383 3.877 7.418-.169.843-.337 1.517-.337 2.36h50.734c-1.012-5.058-3.371-9.778-6.742-13.487z" fill="#EDBC66"/><path d="M739.046 263.252c-5.056 0-9.102 2.36-9.102 5.058v.505c.506 2.529 4.383 4.552 9.102 4.552 4.72 0 8.596-1.854 9.102-4.552v-.505c0-2.866-4.214-5.058-9.102-5.058z" fill="#A47738"/><path d="M741.743 284.999c-19.046 0-37.25-1.854-53.431-5.226 11.631 7.08 24.946 11.969 39.104 13.655 3.877.337 7.754.674 11.462.674 4.045 0 7.753-.337 11.63-.674 13.147-1.686 25.62-5.732 36.744-12.306-13.99 2.528-29.328 3.877-45.509 3.877z" fill="#1D839A"/><path d="M804.107 96.36c0 35.907-29.159 64.902-65.061 64.902-35.901 0-65.06-29.164-65.06-64.903 0-35.907 29.159-64.902 65.06-64.902 35.902 0 65.061 29.164 65.061 64.902z" fill="#F2C682"/><path d="M801.242 115.577c-4.383 18.207-4.551 83.784-12.979 89.347 3.203-7.923.843-62.543-.337-68.949-1.348-9.946 13.316-20.398 13.316-20.398zM684.267 145.922c0 14.16-.337 57.653-5.562 60.688 3.034-6.912-4.551-70.466-8.09-86.144-2.36-9.777 13.652 25.456 13.652 25.456z" fill="#D59539"/><path d="M803.433 96.36c0 35.907-28.991 64.902-64.892 64.902-35.902 0-64.892-28.995-64.892-64.903 0-35.907 28.99-64.902 64.892-64.902 35.901 0 64.892 28.995 64.892 64.902z" fill="#F2C681"/><path d="M811.186 92.145c-.843-11.8-7.753-40.627-26.125-54.451-16.855-12.475-29.665-17.195-45.172-15.846-3.877.337-12.81 2.36-16.518 5.226-34.216 0-53.431 42.481-54.948 49.899-4.719 21.746 2.697 57.148 7.248 70.466 8.428 24.612 5.731 70.297 7.585 77.715 5.225-12.307 10.45-60.014 5.056-87.998-2.022-10.621-3.539-27.142-4.213-40.965-.338-12.306 19.214-29.67 32.024-37.93 11.967 10.789 44.666 6.743 56.802 11.8 8.765 3.54 21.912 21.915 22.586 34.222 3.202 51.416-8.765 107.384-4.214 117.331 3.708-26.805 19.889-72.152 19.889-129.469z" fill="#E8A53C"/><path d="M723.877 26.736c2.528-2.191 6.573-5.731 11.124-6.911-3.539 2.36-3.371 4.888-4.382 6.743-1.012 1.854-6.742.168-6.742.168zM724.382 26.905c-2.359-.506-11.63-2.023-13.989.168 2.696-.337 5.225 1.18 6.236 1.855 1.517 1.011 7.753-2.023 7.753-2.023z" fill="#E8A53C"/><path d="M705.505 106.98c0-3.035 2.528-5.395 5.562-5.395 3.034 0 5.562 2.529 5.562 5.395h-11.124zM759.61 106.98c0-3.035 2.528-5.395 5.562-5.395 3.034 0 5.562 2.529 5.562 5.395H759.61z" fill="#000"/><path d="M757 122.222C754.964 133.111 747.274 136 738 136c-9.048 0-16.738-3.556-19-14l38 .222z" fill="#fff"/><path d="M1187.9 131.087c-2.53-3.878-5.56-7.586-8.6-10.958-19.04-21.241-46.86-34.559-77.7-34.559-30.85 0-58.66 13.318-77.7 34.559-3.2 3.372-6.07 7.08-8.6 10.958-11.46 16.689-18.202 36.918-18.202 58.834 0 18.88 4.892 36.413 13.652 51.585 8.09 14.16 19.38 26.298 33.04 35.233 13.31 8.934 28.82 14.835 45.51 16.689 4.04.337 8.25.674 12.3.674 4.21 0 8.43-.337 12.47-.843 16.69-1.854 32.2-7.754 45.68-16.689 13.48-9.103 24.78-21.072 32.87-35.233 8.59-15.172 13.65-32.873 13.65-51.585-.17-21.578-6.91-41.808-18.37-58.665z" fill="#C7964A"/><path d="M1071.93 281.628c-1.51-1.855-2.69-3.372-2.69-5.732V126.535l13.31-19.218h39.11l13.48 19.555v149.192c0 2.361-1.18 3.878-2.7 5.732a23.465 23.465 0 0 0-6.23 12.981h48.88c-.17-.843-.34-1.686-.34-2.36-.5-2.866 1.18-4.721 3.71-7.081 25.11-21.746 40.96-53.776 40.96-89.346 0-64.566-51.75-116.994-116.13-118.174l.16-.337c-65.39 0-118.319 52.933-118.319 118.173 0 35.739 15.839 67.769 40.959 89.347 2.53 2.36 4.21 4.215 3.71 7.08-.34.843-.34 1.855-.51 2.529h49.05c-.84-4.889-3.03-9.44-6.41-12.98z" fill="#ECBA65"/><path d="M1101.43 261.229c-5.39 0-9.94 2.529-9.94 5.564v.505c.5 2.698 4.72 4.889 9.77 4.889 5.06 0 9.27-2.191 9.78-4.889v-.505c.17-3.035-4.22-5.564-9.61-5.564z" fill="#A07A36"/><path d="M1104.3 284.662c-20.57 0-40.12-2.023-57.48-5.563 12.47 7.755 26.97 12.812 42.14 14.666 4.04.506 8.26.675 12.3.675 4.22 0 8.43-.338 12.48-.675a103.804 103.804 0 0 0 39.44-12.98c-14.84 2.36-31.52 3.877-48.88 3.877z" fill="#03324C"/><path d="M1166.83 122.321c-.84 2.865-3.37 5.394-6.74 5.394s-6.41-2.529-6.41-6.069c0-3.371 8.09-15.003 11.46-15.003 0 0-.67 5.394.85 9.272.84 2.191 1.34 4.551.84 6.406zM1035.86 121.646c.85 2.866 3.38 5.395 6.75 5.395s6.4-2.529 6.4-6.069c0-3.372-8.09-15.003-11.46-15.003 0 0 .67 5.394-.84 9.271-1.01 2.192-1.35 4.552-.85 6.406z" fill="#D8B25C"/><path d="M1162.95 120.803c0 1.349-1.18 2.529-2.53 2.529-1.34 0-2.52-1.18-2.52-2.529 0-1.348 1.18-2.528 2.52-2.528 1.35 0 2.53 1.18 2.53 2.528z" fill="#23201C"/><path d="M1171.04 81.862c0 38.267-31.18 69.454-69.78 69.454s-69.78-31.018-69.78-69.454c0-38.268 31.18-69.286 69.78-69.286 38.6-.169 69.78 31.018 69.78 69.286z" fill="#F2C682"/><path d="M1082.05 104.62c2.36 8.429 9.94 14.666 19.21 14.666 9.27 0 16.86-6.237 19.22-14.666h-38.43z" fill="#fff"/><path d="M1059.97 94.505c0-3.203 2.53-5.732 5.9-5.732 3.2 0 5.73 2.53 5.73 5.732h-11.63zM1130.93 94.505c0-3.203 2.53-5.732 5.9-5.732 3.2 0 5.9 2.53 5.9 5.732h-11.8z" fill="#222"/><path d="M1036.37 108.16s7.42-4.72 6.41-15.678c-1.02-10.957-2.03-17.195 7.07-18.038 0 0-4.55-14.16 12.48-27.478 0 0 11.96-11.97 24.44-6.238 12.47 5.732 19.21 5.9 38.6-.168 0 0 21.57-1.855 18.54 22.42 0 0 5.9 8.767 15.17 8.767 0 0-3.71 21.578 6.57 36.75 0 0 9.44-15.003 5.73-24.275 0 0 6.91-17.87-4.21-27.816 0 0 .84-10.789-9.95-17.532 0 0 2.19-4.214 2.7-7.08 0 0-4.55 2.023-6.58 1.517 0 0 1.02-16.858-20.22-14.666 0 0-6.41-2.023-5.56-8.935 0 0-5.06 1.18-6.58 3.877 0 .169-.17.169-.17.337 0 0-10.78-6.237-5.56-12.98 0 0-7.41 1.18-10.95 7.754 0 0-6.91-6.743-14.5-6.574 0 0 6.74 12.137-5.9 11.632-12.64-.506-20.9 4.889-23.76 11.632 0 0-9.61-.337-13.32 9.272 0 0-4.21.843-6.91-1.35 0 0-.34 7.081 5.9 7.081 0 0-17.87 11.127-13.48 28.49 0 0-5.57 5.057-1.18 7.755.16-.169-1.52 19.218 5.22 31.524z" fill="#3A281A"/><path d="M441.891 145.416c-2.528-3.709-5.394-7.249-8.428-10.789-18.709-20.735-45.677-33.716-75.848-33.716-30.17 0-57.139 12.981-75.848 33.716-3.034 3.371-5.73 6.912-8.427 10.789-11.293 16.352-17.698 36.076-17.698 57.485 0 18.207 4.888 35.402 13.315 50.237 7.754 13.823 18.878 25.624 32.194 34.558 12.978 8.598 28.148 14.498 44.329 16.353 4.045.337 7.921.674 12.135.674 4.214 0 8.259-.337 12.304-.674 16.35-1.855 31.52-7.755 44.329-16.353 13.147-8.766 24.103-20.566 32.025-34.39 8.596-14.835 13.316-32.03 13.316-50.236 0-21.578-6.574-41.302-17.698-57.654z" fill="#C9974B"/><path d="M357.447 272.356c-5.225 0-9.608 2.528-9.608 5.394v.506c.506 2.697 4.551 4.889 9.439 4.889s9.102-2.023 9.439-4.889v-.506c.506-2.866-3.877-5.394-9.27-5.394z" fill="#A47738"/><path d="M360.48 295.114c-20.057 0-39.103-1.854-55.959-5.395 12.305 7.586 26.294 12.475 41.127 14.33 4.045.337 7.922.674 12.136.674 4.213 0 8.259-.337 12.304-.674 13.821-1.686 26.968-6.069 38.429-12.812-15.001 2.528-31.181 3.877-48.037 3.877z" fill="#1D839A"/><path d="m358.626 76.636.169-.337c-71.129 0-128.773 57.485-128.773 128.625 0 38.942 17.361 73.669 44.497 97.27 2.697 2.529 4.72 4.72 4.046 7.755-.506 2.023 50.396-6.743 46.014-11.463-1.685-2.023-3.034-3.709-3.034-6.238v-162.51l14.496-20.904h42.643l14.664 21.073v162.341c0 2.529-1.348 4.215-3.034 6.238-4.382 4.888 46.52 13.654 46.014 11.463-.505-3.035 1.18-5.226 4.046-7.755 27.305-23.601 44.497-58.328 44.497-97.27.169-69.96-56.127-126.94-126.245-128.288z" fill="#EDBC66"/><path d="M424.699 92.988c0 37.762-30.677 68.443-68.432 68.443-37.756 0-68.432-30.681-68.432-68.443s30.676-68.275 68.432-68.275c37.755 0 68.432 30.513 68.432 68.275z" fill="#F2C682"/><path d="M321.04 100.574c0-3.203 2.696-5.9 5.899-5.9 3.202 0 5.899 2.697 5.899 5.9H321.04zM379.527 100.574c0-3.203 2.697-5.9 5.899-5.9 3.203 0 5.899 2.697 5.899 5.9h-11.798z" fill="#212222"/><path d="M373.459 133.615c-1.854 8.767-9.102 11.295-17.529 11.295-8.428 0-15.507-2.866-17.53-11.295 0 0 8.091 1.855 17.53 1.855 9.439 0 17.529-1.855 17.529-1.855z" fill="#fff"/><path d="M424.53 98.888s-1.517.506-2.865 1.517c-1.349 1.012-2.528 3.878-2.528 3.878s-3.371 23.601-26.631 37.087c-5.057 0-6.405-9.778-16.856-16.352-4.213-2.697-9.438-5.395-19.551-5.395-10.282.169-15.339 2.698-19.552 5.395-10.451 6.743-11.799 16.352-16.856 16.352-23.26-13.486-26.631-37.087-26.631-37.087s-1.348-3.035-2.528-3.878a12.163 12.163 0 0 0-2.697-1.517s-.842 20.904 21.912 48.382c2.528 3.035 5.394 5.901 8.428 8.598 2.022 1.686 4.045 3.371 6.067 4.889 4.383 3.203 8.765 8.766 12.81 10.957 6.405 3.54 12.979 4.889 19.047 4.889 6.067 0 12.641-1.349 19.046-4.889 4.045-2.191 8.427-7.754 12.81-10.957 2.022-1.518 4.213-3.203 6.068-4.889 3.033-2.529 5.73-5.395 8.427-8.598 22.754-27.478 22.08-48.382 22.08-48.382zm-48.711 46.528c-1.348 2.697-3.877 9.44-12.978 8.597-5.394-.505-2.866-5.9-2.866-5.9h-8.427s2.696 5.395-2.866 5.9c-9.102.843-11.63-5.9-12.978-8.597-1.517-3.203-1.686-12.306 4.045-15.678 3.54-2.191 6.236-3.203 15.844-3.203 9.607 0 12.473 1.012 15.844 3.203 6.067 3.372 5.899 12.475 4.382 15.678z" fill="#4C4946"/><path d="M394.191 22.69s.843 1.686.168 3.035c-2.528-3.203-9.944-7.418-13.821-7.923 1.517 1.011 1.686 3.034 1.686 3.034s-5.731-4.214-12.473-5.057c-.337 4.214-11.462-.675-25.114 1.854-13.653 2.529-21.069 5.226-27.137 8.26-9.607 4.89-12.81 16.858-4.888 20.399 5.057 2.191 25.62 5.731 38.935 5.731 13.316 0 36.07-4.046 42.475-6.574 1.686-.675 6.405-3.878 6.405-3.878 2.528-3.203 4.045-14.329-6.236-18.88z" fill="#6C6866"/><path d="M424.361 84.053c-1.011-23.264-8.259-40.122-25.788-52.09-14.327-9.778-38.092-7.25-42.306-7.081h-.337c-4.214 0-27.98-2.697-42.307 7.08-17.529 11.97-24.777 28.827-25.788 52.091-.169 6.238-.337 11.632.169 17.027l5.393 4.214c-1.18-5.394-.505-11.8.337-18.88 1.854-15.341 8.259-26.805 14.327-32.368 4.551-4.383 8.933-7.08 21.406-8.935 4.72-.674 12.136 3.203 25.789 3.54h1.685c13.653-.337 21.069-4.214 25.788-3.54 12.642 1.855 16.855 4.552 21.406 8.935 6.068 5.732 12.473 17.195 14.327 32.367.843 7.08 1.517 13.487.337 18.881l5.562-4.214c.506-5.395.338-10.79 0-17.027z" fill="#6C6866"/><path d="M834.446 173.906H643.478c-3.539 0-6.573 3.034-6.573 6.574v127.277c0 3.54 3.034 6.575 6.573 6.575h190.968c3.54 0 6.574-3.035 6.574-6.575V180.48c.169-3.708-2.865-6.574-6.574-6.574z" fill="gray"/><path opacity=".75" d="M739.046 261.567c9.682 0 17.53-7.85 17.53-17.533 0-9.682-7.848-17.532-17.53-17.532-9.681 0-17.529 7.85-17.529 17.532 0 9.683 7.848 17.533 17.529 17.533z" fill="#fff"/><path d="M453.184 173.906H262.047c-3.54 0-6.574 3.034-6.574 6.574v127.277c0 3.54 3.034 6.575 6.574 6.575h190.968c3.54 0 6.574-3.035 6.574-6.575V180.48c.168-3.708-2.866-6.574-6.405-6.574z" fill="gray"/><path opacity=".75" d="M357.447 261.567c9.681 0 17.529-7.85 17.529-17.533 0-9.682-7.848-17.532-17.529-17.532-9.681 0-17.53 7.85-17.53 17.532 0 9.683 7.849 17.533 17.53 17.533z" fill="#fff"/><path d="M1202.22 173.906h-190.96c-3.54 0-6.58 3.034-6.58 6.574v127.277c0 3.54 3.04 6.575 6.58 6.575h190.96c3.54 0 6.58-3.035 6.58-6.575V180.48c0-3.708-2.87-6.574-6.58-6.574z" fill="gray"/><path opacity=".75" d="M1106.66 261.567c9.68 0 17.53-7.85 17.53-17.533 0-9.682-7.85-17.532-17.53-17.532-9.68 0-17.53 7.85-17.53 17.532 0 9.683 7.85 17.533 17.53 17.533z" fill="#fff"/><path d="M904.226 363.388h100.794l-54.948-89.009h-89.669l43.823 89.009z" fill="#fff"/><path opacity=".1" d="M943.667 381.257h105.173l-61.518-88.84H896.81l46.857 88.84z" fill="#000"/><path d="M944.847 380.246h105.003l-61.348-89.178h-90.681l47.026 89.178z" fill="#fff"/><path d="M549.089 233.077a26.401 26.401 0 0 0-26.462 26.467 26.401 26.401 0 0 0 26.462 26.466 26.402 26.402 0 0 0 26.463-26.466 26.402 26.402 0 0 0-26.463-26.467zm0 47.033c-11.967 0-20.563-8.597-20.563-20.566 0-11.97 8.596-20.567 20.563-20.567 11.967 0 20.564 8.597 20.564 20.567 0 11.969-8.428 20.566-20.564 20.566z" fill="url(#a)"/><path d="M515.379 224.479v12.307h45.677v-12.307s-9.607-2.697-22.922-2.697c-12.305.169-22.755 2.697-22.755 2.697z" fill="url(#b)"/><path d="M515.379 224.479v12.307h45.677v-12.307s-9.607-2.697-22.922-2.697c-12.305.169-22.755 2.697-22.755 2.697z" fill="url(#c)"/><path d="M515.379 224.479s8.596 2.529 22.923 2.529c13.484 0 22.923-2.529 22.923-2.529v69.286s-7.079 3.877-22.923 3.877c-16.181 0-22.923-3.877-22.923-3.877v-69.286z" fill="url(#d)"/><path d="M528.189 219.085h-1.854c-1.854-12.138 2.528-24.107.843-36.076h.337c2.359 11.969-1.686 23.938.674 36.076zM539.145 219.085h-1.854c-1.854-12.138 2.528-24.107.842-36.076h.338c2.191 11.969-1.686 23.938.674 36.076zM549.932 219.085h-1.854c-1.854-12.138 2.528-24.107.843-36.076h.337c2.359 11.969-1.686 23.938.674 36.076z" fill="#fff"/><path d="M1242.68 294.777s17.19-3.878 45.51-3.878c30.84 0 46.01 3.878 46.01 3.878l-1.69 22.252s-25.28 5.057-44.32 5.057c-22.93 0-43.83-5.057-43.83-5.057l-1.68-22.252z" fill="#D84D23"/><path d="M1258.69 301.857c-7.75-45.179 15.51-83.615 3.37-174.142 23.26 33.379 18.71 167.062 8.43 178.356M1310.1 301.52c8.43-48.551-16.69-90.19-3.37-187.628-24.95 35.907-20.23 179.873-9.11 191.842" fill="#4E7914"/><path d="M1305.72 300.508c-2.53-20.566 49.04-88.504 28.48-140.089 24.61 34.896-20.56 129.806-16.18 145.484l-12.3-5.395z" fill="#4E7914"/><path d="M1330.32 317.029h-83.93l19.38 68.106s11.29 3.203 22.25 3.203c11.46 0 22.92-3.203 22.92-3.203l19.38-68.106z" fill="#F15A24"/><path d="M1242.68 294.777s17.19 5.057 45.51 5.057c30.84 0 46.01-5.057 46.01-5.057l-1.69 22.252s-25.28 5.057-44.32 5.057c-22.93 0-43.83-5.057-43.83-5.057l-1.68-22.252z" fill="#F15A24"/><path opacity=".3" d="m1246.55 317.535 1.01 3.54s20.4 3.54 40.63 3.54c21.4 0 41.12-3.54 41.12-3.54l1.01-3.54s-22.75 3.877-42.13 3.877c-17.2 0-41.64-3.877-41.64-3.877z" fill="#000"/><path opacity=".2" d="M61.977 344.339c-.169 1.011.337 1.854.842 2.697.675 1.18 1.855 2.023 3.371 2.529l38.767 13.318c0 6.574 1.854 11.294 5.394 17.532.505 1.011 1.18 1.854 1.685 2.697 7.079 10.789 18.372 19.049 32.025 23.938 13.653 4.72 27.811 5.058 39.947 1.012 12.135-4.046 20.9-12.138 24.44-22.59 1.179-3.371 1.854-7.08 1.854-5.732V363.22l-.169-.337c.169-7.586-2.36-15.341-7.079-22.59-7.079-10.789-18.372-19.218-32.025-23.938-15.169-5.226-26.294-3.709-38.261 1.348-6.742 2.698-12.304 6.912-16.518 12.307l-40.958-14.835a7.818 7.818 0 0 0-4.382-.169c-1.349.337-2.36 1.349-2.528 2.529l-3.877 11.295c-.169.337-.169.674-.169 1.011l-2.36 14.498z" fill="#000"/><path d="M64.168 332.201c0-.337 0-.674.168-1.011l3.877-11.295c.337-1.18 1.18-2.023 2.528-2.529 1.349-.506 2.866-.337 4.383.169l39.272 13.992c4.045-5.395 9.776-9.441 16.518-12.306 12.136-4.889 27.643-5.226 42.644 0 13.652 4.72 24.945 13.149 32.024 23.938 4.888 7.249 7.248 15.172 7.079 22.589 0 0 0 .169.169.337l-.674 13.15c0 .674-.337 2.36-.843 3.54-3.54 10.452-12.641 17.363-24.777 21.409-12.304 4.046-26.294 3.709-39.947-1.011-13.652-4.889-24.945-13.149-32.024-23.938-.506-1.012-1.18-1.855-1.686-2.698-3.539-6.237-5.393-10.957-5.393-17.532l-39.273-13.992c-1.517-.506-2.697-1.517-3.37-2.529-.507-1.011-1.012-1.854-.844-2.697l.169-7.586z" fill="#C49674"/><path d="M130.914 319.389c-6.742 2.697-12.304 6.912-16.518 12.306l-39.272-13.992a7.826 7.826 0 0 0-4.383-.168c-1.348.337-2.36 1.348-2.528 2.528l-3.877 11.295c-.337 1.18-.168 2.529.506 3.54.674 1.18 1.854 2.023 3.371 2.529l39.272 13.992c0 6.575 1.854 13.149 5.563 19.724l17.866-51.754z" fill="#EAB783"/><path d="M114.733 373.84c7.079 10.789 18.372 19.049 32.025 23.938 13.653 4.72 27.811 5.058 39.946 1.012 12.305-4.046 20.901-12.138 24.44-22.59 3.54-10.452 1.686-22.084-5.393-32.873-7.079-10.789-18.372-19.218-32.025-23.938-15.17-5.226-30.845-5.057-42.98-.168l-17.867 51.585c.506.843 1.349 2.191 1.854 3.034z" fill="#ED1C24"/><path d="M182.322 378.56c7.261 0 13.147-5.887 13.147-13.149s-5.886-13.149-13.147-13.149-13.147 5.887-13.147 13.149 5.886 13.149 13.147 13.149z" fill="#fff"/><path d="M172.041 363.388c0-2.697 1.011-5.226 2.528-7.249-2.528 2.192-4.382 5.563-4.382 9.272 0 6.743 5.562 12.138 12.135 12.138 4.045 0 7.585-1.855 9.776-4.889-2.022 1.854-4.888 2.866-7.753 2.866-6.911 0-12.304-5.563-12.304-12.138z" fill="#E6E6E6"/><path d="M417.788 236.954c-1.18 0-2.528-.337-3.877-.843-2.36-1.011-3.876-2.023-4.719-3.371-1.517-.843-2.36-1.855-2.866-2.698-.337.169-.505.506-1.011.675-.843.505-1.854.674-3.034.674-1.18 0-2.36-.337-3.708-.843-3.202-1.011-4.551-2.697-5.225-3.877-2.023-1.349-2.697-3.035-2.865-4.215V220.265l-.843 1.686c-.337.843-1.011 1.685-1.854 2.023-.506.337-1.18.505-2.023.505-.674 0-1.348-.168-2.191-.505-1.011-.506-2.36-1.18-3.034-2.529-.843-1.349-.337-2.697 0-3.372l.169-.337c.337-.843 5.225-14.16 5.899-16.015 0-.337.168-.674.337-1.011.506-1.012 1.348-3.372 3.877-4.889 1.348-.843 3.202-1.349 5.225-1.349.843 0 1.854 0 2.865.169.843-.337 2.697-1.012 4.214-1.012.506 0 1.18 0 1.517.169.843.337 1.517.674 2.023 1.18.337 0 .842 0 1.179.169 2.023.505 3.54 1.685 4.383 3.708l7.079 2.529c2.697 1.18 4.888 2.529 6.573 4.214.843 1.012 1.517 1.855 2.023 3.035l2.191.843a6.768 6.768 0 0 1 2.528-.506c.506 0 1.012 0 1.517.169h.337c1.18.674 1.686 1.517 1.686 2.191v.506c.337.506.674 1.011.843 1.686 0 .674-.169 1.18-.506 1.685-.337.675-1.011 1.181-1.854 1.349l-.169.169a2.791 2.791 0 0 1-2.022.843c-.843 0-1.517-.338-1.854-.506a3.676 3.676 0 0 1-1.349-.843c-.337 2.191-1.348 4.552-2.696 6.406l-3.877 10.789c-.169.843-1.011 2.191-2.36 2.866-.674.506-1.685.674-2.528.674z" fill="#AEBEE2"/><path d="M403.292 195.652c.338 0 .675 0 1.012.169 1.18.337 1.685 1.011 1.854 1.348.337 0 .674-.168.842-.168.169 0 .506 0 .675.168 1.18.338 2.697 1.012 3.371 3.372l7.922 2.697c2.359 1.012 4.213 2.192 5.73 3.709.843 1.011 1.517 2.023 2.023 3.203l3.708 1.349c.506-.169 1.517-.675 2.528-.675.337 0 .506 0 .843.169.506.337.674.506.674.843.169.337 0 .505-.168.843.505.337 1.348 1.011.843 1.348-.169.506-.843.675-1.18.675h-.337c.168.168 0 .337-.169.674-.169.169-.337.169-.674.169s-.674-.169-.843-.169c-1.348-.506-1.854-1.854-1.854-2.36l-2.36-.843c.674 3.54-.337 7.08-2.697 9.609v.337l-3.876 10.621c0 .168-.337 1.18-1.349 1.685a6.268 6.268 0 0 1-2.022.338 8.39 8.39 0 0 1-3.203-.675c-2.022-.843-3.539-1.854-4.045-3.034-2.023-1.012-2.697-2.192-2.865-3.203-.169-1.012.168-1.686.168-1.855l1.18-3.54c-.506-.337-1.18-.505-1.348-.674l-1.854 4.889c0 .168-.337 1.18-1.517 1.854-.506.337-1.18.506-2.023.506-.843 0-1.854-.169-3.034-.674-2.191-.675-3.539-1.855-4.214-3.035 0-.169-.168-.337-.168-.337-1.854-1.012-2.36-2.192-2.528-3.203v-.674c-.169-1.012.337-1.686.337-1.855l2.696-7.249c-.505-.168-1.011-.337-1.516-.337h-.506c-.843.169-1.517.843-2.023 1.855l-3.371 7.08c0 .168-.337.674-.842 1.011-.338.169-.675.337-1.18.337-.506 0-.843-.168-1.517-.337-1.012-.337-1.686-1.011-1.854-1.517-.337-.674-.169-1.348.168-1.854v.168c.337-1.011 6.068-16.352 6.068-16.52 0-.169 0-.338.169-.338.337-1.011 1.179-2.865 3.202-4.214 1.18-.674 2.528-1.011 4.214-1.011 1.011 0 2.022.168 3.034.337.337-.169 2.359-1.012 3.876-1.012zm0-4.046c-1.685 0-3.371.506-4.55 1.012-.843-.169-1.686-.169-2.529-.169-2.359 0-4.551.506-6.236 1.517-2.866 1.686-4.045 4.383-4.551 5.564-.169.337-.337.842-.506 1.348-.842 2.36-5.393 14.835-5.899 15.847l-.337.674v.168c-.674 2.023-.169 3.541.337 4.721.674 1.348 2.023 2.528 3.877 3.203h.168c1.012.337 2.023.505 2.866.505a5.83 5.83 0 0 0 3.034-.842c.168 0 .337-.169.505-.338.506 1.012 1.349 1.855 2.36 2.698.843 1.517 2.697 3.371 6.068 4.551 1.517.506 2.865.843 4.214.843 1.179 0 2.359-.168 3.371-.674.505.506 1.179 1.18 2.022 1.517 1.18 1.517 2.866 2.697 5.394 3.709 1.685.674 3.202.843 4.551.843 1.348 0 2.528-.169 3.539-.675 1.854-1.011 3.034-2.697 3.371-4.046l3.708-10.283c1.012-1.348 1.686-2.866 2.192-4.383.505.169 1.179.337 1.854.337 1.348 0 2.528-.505 3.371-1.348 1.011-.338 1.685-1.012 2.359-2.023.675-.843 1.012-1.855.843-3.035a5.036 5.036 0 0 0-1.011-2.36v-.168c-.169-1.012-.843-2.529-2.697-3.372l-.169-.169-.337-.168c-.674-.169-1.348-.337-2.022-.337-.843 0-1.686.168-2.529.337l-1.011-.337c-.506-1.012-1.18-1.855-1.854-2.529l-.168-.169-.169-.168c-1.854-1.855-4.214-3.372-7.079-4.552h-.337l-6.237-2.191c-1.18-2.023-2.865-3.372-5.225-4.046-.337-.169-.674-.169-.843-.169-.505-.506-1.348-.843-2.022-1.011-.169.337-.843.168-1.686.168z" fill="#fff"/><path d="m433.463 214.533-.337 1.012-.674.168-.843-.506-.674-.505-.506-.843.169-.169v-.168l.674.168 1.348.674.843.169zM433.126 212.679l-2.36-.506-.505.337.168.506 1.686.843 1.854.674h.506l.337-.337.168-.506-.505-.337-.506-.337-.843-.337zM433.8 211.499h-1.854l-.168.505 1.011.338.843.337h.337l.168-.506-.337-.674zM393.011 222.962s-1.011-.337-.337-2.023c.843-1.517 1.685-2.191 2.023-2.023.337.169.337 1.517.337 1.517-.843-.168-2.023 1.855-2.023 2.529z" fill="#94AAD7"/><path d="M393.854 223.805s-.843-.337-.337-1.517c.674-1.18 1.348-1.855 1.517-1.686.168 0 .337.506.168 2.36-.674 1.18-1.348.843-1.348.843z" fill="#94AAD7"/><path d="M393.011 223.299c-.169-.168-1.18-.674-.337-2.529.843-1.517 1.854-2.528 2.359-2.36.338.169.338 1.349.338 1.855v.168h-.169c-.337 0-.506.169-.843.337-.674.675-1.18 1.855-1.18 2.192l-.168.337zm-.169-2.36c-.337 1.18-.168 1.686 0 1.854.169-.674.675-1.685 1.18-2.191.337-.337.674-.506 1.011-.506 0-.674.001-1.348-.168-1.348-.337-.169-1.18.505-2.023 2.191z" fill="#3A3654"/><path d="M393.854 223.974s-.337-.169-.506-.506a1.437 1.437 0 0 1 0-1.18c.674-1.349 1.517-1.855 1.854-1.855.169 0 .506.338.169 2.698-.675 1.348-1.517.843-1.517.843zm-.337-1.686c-.169.337-.169.843-.169 1.18.169.337.337.337.337.337v.169-.169s.674.337 1.18-.843c.337-1.854.169-2.36 0-2.36 0 0-.674.506-1.348 1.686z" fill="#3A3654"/><path d="M393.854 224.142s.842-.168 1.179-.674c-.337.843-.337 1.348-.337 1.348s-.505-.337-.842-.674zM396.045 226.334s-1.349-.675-.506-2.36c1.18-1.518 2.023-1.855 2.36-1.518-1.18 1.349-2.36 2.866-1.854 3.878z" fill="#94AAD7"/><path d="M397.73 227.682s-1.18 0-1.517-1.18c0-.337 0-.674.169-1.18.506-2.023 2.697-3.877 3.202-3.034.338.843.338 1.18.338 1.686-.843.168-2.866 1.517-2.192 3.708z" fill="#94AAD7"/><path d="M398.236 228.019s-1.18-.505-.337-2.023c1.011-1.517 1.854-1.854 1.854-1.685 0 .168.506.505.169 2.528-.338 1.518-1.686 1.18-1.686 1.18z" fill="#94AAD7"/><path d="m396.213 226.839-.337-.168s-.505-.337-.842-1.012c-.169-.337-.169-1.011.168-1.685 1.011-1.518 2.023-1.855 2.697-1.855h.168l.169.169-.169.168c-1.516 1.518-2.191 3.035-1.854 4.046v.337zm-.842-2.697c-.337.506-.337 1.012-.169 1.349.169.337.337.505.337.674-.168-1.349 1.18-2.866 1.854-3.709-.168-.168-1.011.169-2.022 1.686z" fill="#3A3654"/><path d="M396.888 227.851c-.506-.169-1.349-.674-1.18-2.529.337-1.517 1.685-3.034 2.696-3.54.338-.169.506-.169.675-.169.168 0 .337.169.337.338.337.842.337 1.18.337 1.517v.506h-.169c-.674.337-2.696 1.854-2.022 3.708v.169h-.169c.337.168 0 .168-.505 0zm-.675-2.36c-.337 1.348.337 1.854.843 2.191.169 0 .337.169.337.169-.337-1.855 1.349-3.54 2.191-3.877v-.169c0-.337 0-.674-.337-1.349 0-.168-.168-.168-.168-.168-.169 0-.337 0-.506.168-.843.169-1.854 1.518-2.36 3.035z" fill="#3A3654"/><path d="M398.236 228.357s-.337-.338-.674-.843c-.169-.337-.169-1.012.337-1.518 1.011-1.685 1.854-1.854 2.191-1.854.337.169.674.843.337 2.697-.168.675-.337 1.18-.843 1.349-.842.169-1.348.169-1.348.169zm-.169-2.361c-.337.506-.337 1.012-.337 1.349.169.337.337.506.506.674 0 0 .337.169.843-.168.337-.169.505-.506.674-1.18.337-1.855 0-2.529-.169-2.529.169.169-.505.337-1.517 1.854z" fill="#3A3654"/><path d="M408.349 228.694s-1.011-.338-.337-2.023c.843-1.517 1.685-2.192 2.023-2.023.337.168.337 1.517.337 1.517-1.012-.337-2.192 1.854-2.023 2.529z" fill="#7A8EC7"/><path d="M408.349 229.031c-.169-.169-1.18-.674-.337-2.529.843-1.517 1.854-2.528 2.36-2.36.337.169.337 1.349.337 1.854v.169h-.169c-.337 0-.506.169-.843.337-.674.675-1.179 1.855-1.179 2.192l-.169.337zm-.337-2.36c-.337 1.18-.169 1.686 0 1.854.168-.674.674-1.686 1.18-2.191.337-.338.674-.506 1.011-.506 0-.674 0-1.349-.169-1.349-.168-.168-1.179.506-2.022 2.192z" fill="#3A3654"/><path d="M409.023 229.705s-1.011-.337-.337-1.686c.674-1.348 1.517-1.854 1.686-1.854.168.169.337.674.168 2.697-.674 1.18-1.517.843-1.517.843z" fill="#7A8EC7"/><path d="M409.023 229.874s-.337-.169-.505-.506c-.169-.337-.169-.843.168-1.349.674-1.348 1.517-2.022 1.854-1.854.169 0 .674.337.169 2.697-.674 1.18-1.686 1.012-1.686 1.012zm-.337-1.855c-.168.338-.168.843-.168 1.181.168.337.337.337.337.337v.168-.168s.842.337 1.18-.843c.337-2.023 0-2.529 0-2.529s-.675.674-1.349 1.854z" fill="#3A3654"/><path d="M408.855 229.874s1.18 0 1.517-.843c-.337 1.18-.169 1.686-.169 1.686s-.843-.506-1.348-.843z" fill="#7A8EC7"/><path d="M411.383 231.728s-1.348-.674-.506-2.36c1.012-1.517 1.854-1.854 2.36-1.686-1.348 1.517-2.36 3.035-1.854 4.046z" fill="#94AAD7"/><path d="m411.72 232.234-.337-.169s-.674-.337-.843-1.011c-.168-.337-.168-1.012.169-1.686 1.011-1.686 1.854-2.023 2.528-1.854h.169l.168.168-.168.337c-1.349 1.686-2.023 3.203-1.686 4.215zm-.843-2.36c-.337.506-.337 1.011-.168 1.348.168.338.337.506.505.675-.337-1.18.843-2.866 1.686-3.878-.506-.168-1.18.338-2.023 1.855z" fill="#3A3654"/><path d="M413.068 233.077s-1.854 0-1.348-2.192c.506-2.023 2.697-3.877 3.203-3.034.337.843.337 1.18.337 1.686-.843.168-2.866 1.517-2.192 3.54z" fill="#94AAD7"/><path d="M412.394 233.077c-.337-.169-1.18-.675-1.011-2.36.337-1.517 1.685-2.697 2.528-3.203.337-.169.506-.169.674-.169.169 0 .338.169.338.337.337.675.337 1.18.337 1.349v.506h-.169c-.674.337-2.528 1.685-1.854 3.54v.168h-.169c0-.168-.337-.168-.674-.168zm-.674-2.36c-.337 1.348.337 1.854.843 2.023.168 0 .337 0 .337.168-.337-1.854 1.348-3.203 2.023-3.54v-.168c0-.338 0-.675-.338-1.349 0-.169 0-.169-.168-.169-.169 0-.337 0-.506.169-.674.337-1.854 1.517-2.191 2.866z" fill="#3A3654"/><path d="M413.743 233.414s-1.18-.506-.337-2.023c.842-1.517 1.685-1.854 1.854-1.854.168 0 .505.505.337 2.528-.506 1.855-1.854 1.349-1.854 1.349z" fill="#94AAD7"/><path d="m413.743 233.751-.675-.674c-.168-.337-.168-1.012.169-1.517 1.011-1.686 1.854-2.023 2.023-1.855.337.169.674.843.337 2.697-.169.675-.337 1.18-.843 1.349-.506.169-1.011 0-1.011 0zm-.337-2.191c-.338.505-.338 1.011-.169 1.348.169.337.337.506.506.506 0 0 .337.169.842-.169.338-.168.506-.505.675-1.18.337-1.854 0-2.528-.169-2.528 0 0-.843.337-1.685 2.023zM395.371 212.51c-.169 0-.169-.168-.169-.337s.169-.337.337-.337c0 0 .674 0 1.517-.337 1.18-.506 2.023-1.855 2.697-3.372 0-.168.168-.169.337-.169s.169.169.169.338c-.843 2.191-2.023 3.203-2.866 3.54-1.18.674-1.854.674-2.022.674z" fill="#3A3654"/><path d="M399.753 208.464c-.674-.337-1.18-1.18-1.18-1.18 0-.168 0-.337.169-.337.168 0 .337 0 .337.169 0 0 .337.674.842.842.338.169.843 0 1.18-.337.169-.168.337-.168.337 0 .169.169.169.337 0 .337-.505.506-1.011.675-1.685.506.168 0 0 0 0 0zM397.73 201.215s.169.169.337 0c.169-.168-.168-.337-.168-.337s-2.36-1.854-4.551-.674c-.337.337 0 .674 0 .674s.169.337.506 0c.674-.337 2.359-.843 3.876.337zM395.371 203.238s1.854-.168 1.686 1.349c-.169 1.686-3.371 1.686-3.203 0-.674-1.686 1.349-2.697 3.203-2.023 0 .337-1.686.674-1.686.674z" fill="#3A3654"/><path d="M396.719 205.093c-.169.505-.843.843-1.517.674-.674-.169-1.18-.506-1.011-1.349.337-.843 1.18-1.18 1.854-.843.505.169 1.011.843.674 1.518z" fill="#92A9ED"/><path d="M396.719 205.093c-.168.505-.843.843-1.517.505-.506-.337-1.011-.674-.843-1.18.169-.505 1.012-1.011 1.517-.843.675.338 1.012.843.843 1.518z" fill="#FCFCFC"/><path d="M396.55 205.261s.338-1.011-.337-1.18c-.505-.337-.842.169-.842.169l.337.337-.506.169s.169 1.011 1.011.842l.337-.337z" fill="#3A3654"/><path d="M396.214 205.094a.338.338 0 1 0-.002-.676.338.338 0 0 0 .002.676z" fill="#FCFCFC"/><path d="M410.203 201.721v1.686l6.405 2.023c6.068 1.854 9.607 5.563 10.45 9.946.337-3.877-2.528-8.935-8.09-10.958l-8.428-3.203-.337.506z" fill="url(#e)"/><path d="m403.967 211.836-1.18 1.854s-.506 1.012.337 1.18c.843.337 1.18.337 1.18.337s.674.338 1.18-.505l.674-1.18 1.18.337s1.854 1.011 3.876-.337c-.674.842-.674 1.517.169 1.854.843.337 1.011.337 1.011.337s.843.337 1.349-.843l1.854-2.866 1.18.338s.337.168 0 .337l-1.517 2.528s-.675 1.012.337 1.349c1.011.337 1.18.337 1.18.337s.337.337.674 0l-.674 1.18s-.675.843.337 1.18l1.18.337s.674.338 1.179-.674l.506-1.011.843.337c3.539 1.348 5.225-.843 5.731-2.192 0 0 1.18-2.528-2.192-3.708l-2.528-1.012s-.843-.337-1.348.337l-.337.675s.674-1.518-2.023-2.698l-.843-.337.506-1.011s.674-.843-.337-1.18l-1.011-.338s-.675-.337-1.18.338c-.337.842-1.686 2.697-1.686 2.697s.506-1.855-2.697-2.866c-1.348.506-1.179 1.854-1.179 1.854l.505.338s.843.337.337 1.011c-.337.674-.674 1.18-2.528.506l.169-.337c-.843 1.011-3.709 1.011-4.214 1.517z" fill="#fff"/><path d="m403.462 214.533 1.011.337s.337.169.506-.337c.337-.337.674-1.18.674-1.18s.169-.337.506-.169c1.179.338 3.708 1.686 5.562-.842.337-.675 1.854-2.698-1.854-3.878-.843.337-.674 1.012-.674 1.012s1.854.505 1.179 1.854c-.842 1.18-1.348 1.517-2.359 1.18-1.012-.337-1.686-.337-1.18-1.011-1.349 0-1.854.168-1.854.168l-1.18 2.023c-.506.169-.843.843-.337.843zM414.754 208.801s.169-.505.506-.337c.337.169 1.18.337 1.18.337s.337.169-.169.675c-.506.505-.506.842-.506.842s-.337.338.169.506c.337.169 1.18.337 1.18.337 1.348.506 2.022 1.18 1.18 2.698l-1.686 2.697s-.168.337-.506.337c-.337-.169-1.011-.337-1.011-.337s-.337-.169-.168-.337c.168-.169 1.685-2.698 1.685-2.698s.674-.842-.337-1.18l-1.011-.337s-.506-.337-.843.337l-1.854 3.035s-.169.337-.674.337c-.506-.169-.843-.337-.843-.337s-.337-.169-.169-.506l3.877-6.069zM420.822 212.679s-.337-.337-.674.337l-3.54 5.9s-.337.337 0 .506c.337.168 1.011.337 1.011.337s.337.169.506-.337c.169-.337.674-1.18.674-1.18s.169-.337.674-.337c.506 0 1.012.337 1.012.337 2.191.843 4.045 0 4.888-1.855.674-1.854-.843-2.865-1.686-3.202-1.18.168-2.865-.506-2.865-.506z" fill="#3A3654"/><path d="m421.665 215.039-1.18 1.854.505.169c1.517.674 2.697-1.349 1.517-1.686l-.842-.337z" fill="#fff"/><path d="m383.572 218.748 6.236-15.847c1.18-2.529 3.034-5.9 9.945-4.214-.337.505.337.674.337.674 1.854-.337 6.911-2.529 9.439 0-.843-1.854-3.203-2.023-3.203-2.023l-5.393.674-.337-.337c-2.529-1.011-8.596-1.854-10.788 2.697-1.854 3.709-6.742 17.364-6.236 18.376z" fill="url(#f)"/><path d="M435.486 214.365c.337-.843-.506-1.349-1.012-1.686.169-.337.338-.506.169-.843 0-.337-.169-.506-.674-.843-1.18-.337-2.697.337-3.371.506l-3.708-1.349c-.506-1.18-1.18-2.191-2.023-3.203-1.517-1.517-3.54-2.697-5.731-3.709l-7.922-2.697c-.674-2.36-2.022-3.034-3.371-3.371-.337-.169-.842-.169-1.517 0-.168-.338-.674-1.012-1.854-1.349-1.685-.506-4.382.674-5.056 1.011-2.866-.505-5.394-.337-7.248.675-2.022 1.18-2.697 3.203-3.202 4.214-.169.169-.169.337-.169.337 0 .169-5.731 15.51-6.068 16.521v.169c-.337.505-.505 1.18-.168 1.854.337.506 1.011 1.18 1.854 1.517 1.18.337 1.854.337 2.697 0 .505-.337.842-.843.842-1.011l3.371-7.081c.506-1.18 1.18-1.854 2.023-1.854.674-.169 1.348 0 2.023.337l-2.697 7.249c0 .169-.337 1.012-.337 2.023.168 1.18.505 2.529 2.528 3.54 0 .169.168.337.168.337.506 1.18 1.855 2.36 4.214 3.035 2.023.843 3.877.843 5.057.168a3.436 3.436 0 0 0 1.517-1.854l1.854-4.889c.337.169.843.337 1.348.674l-1.18 3.541c0 .168-.337.843-.168 1.854.168 1.011.843 2.192 2.865 3.203.506 1.18 1.854 2.192 4.045 3.034 2.192.843 3.877.843 5.057.338 1.18-.506 1.348-1.518 1.348-1.686l3.877-10.621v-.337c2.191-2.697 3.371-6.237 2.697-9.609l2.36.843c.168.506.505 1.854 1.854 2.36.337.169 1.179.337 1.517 0 .168-.337.337-.506.168-.674.843 0 1.686 0 2.023-.674zm-1.686-2.361c0 .169 0 .338-.168.338-.337-.169-1.18-.338-1.854-.506.505-.169 1.179-.337 1.685 0 .169 0 .337.168.337.168zm-29.833-15.34c.674.337 1.18.506 1.18.674-1.012.169-2.023.337-2.866.337-.674-.337-1.348-.337-1.854-.505 1.18-.506 2.697-1.012 3.54-.506zm-10.619 23.601 2.697-7.249c.843.506 1.685 1.18 2.191 1.517-.843 2.192-3.034 8.26-3.203 8.766-.168.337-.337.675-.337 1.18-2.359-1.517-1.348-4.046-1.348-4.214zm15.17 6.574 1.179-3.54c.675.337 1.517.337 2.529.675l-1.854 5.057c0 .168-.337.674-.169 1.349-2.528-1.349-1.854-3.372-1.685-3.541zm15.506-4.888c-.168.168-.168.337 0 .505l-3.876 10.452s-.169.843-1.18 1.18c-1.012.506-2.529.337-4.383-.337s-3.202-1.686-3.708-2.697c-.337-1.012-.168-1.686-.168-1.686l2.359-6.237c.169-.169 0-.337-.337-.506-.337-.169-.337 0-.505.337l-.169.337c-2.697-.506-4.045-1.348-4.551-1.686l.169-.505c.168-.169 0-.337-.337-.506-.169-.169-.337 0-.506.337l-2.36 6.238s-.168 1.011-1.179 1.517c-1.012.505-2.529.506-4.383-.169-1.854-.674-3.202-1.686-3.708-2.697-.337-1.012-.169-1.686 0-2.023.169-.506 3.54-9.609 3.54-9.609l-.675-.337v.168c-1.179-1.18-3.539-2.697-5.393-2.191-1.18.337-1.854 1.18-2.697 2.36l-3.371 7.08v.169s-.169.337-.506.506c-.337.337-1.18.168-1.854-.169-.843-.337-1.348-.674-1.517-1.18-.168-.337 0-1.011.169-1.349 0 0 0-.168.168-.168.337-1.012 5.731-15.847 5.9-16.521 0-.169.168-.337.168-.337.674-1.854 2.36-5.9 9.608-4.383.505.168 1.179.337 1.854.506-.169.168-.169.168-.169.337 0 .168.337.337.337.337.337 0 .506-.169.843-.169.169 0 .337 0 .337-.168 1.686-.337 4.045-.675 4.72-.506 1.179.337 2.528.843 2.865 3.203.337 2.192-1.011 8.26-3.54 9.778-1.18.337-1.854.337-2.696.337-1.18-.169-2.192-.337-2.697 1.348-.169.169 0 .338.337.506.168.169.337 0 .505-.337.338-1.18.843-1.18 1.855-1.012.842.169 1.854.338 3.202-.337 1.854-1.011 2.865-3.54 3.371-5.057.506-1.854.843-3.877.674-5.057l7.416 2.697c4.214 1.686 7.248 4.383 8.091 8.092 1.517 3.203.506 6.911-2.023 9.609zm8.259-6.744c-.674-.337-1.18-.842-1.348-1.348.168.168.337.168.506.337.505.337 1.179.506 1.348.674.169.169.168.337.168.506 0-.169-.168-.169-.674-.169zm1.18-1.011c-.168 0-.843-.337-1.517-.674-.843-.338-1.18-.675-1.348-.843 1.18-.169 2.697.337 3.371.674.337.337 1.011.506.843.843-.169.169-.675.169-1.349 0z" fill="#3A3654"/><path d="M429.586 212.173s-.168.169-.168.337v.169l-2.191-.843c0-.169-.169-.337-.169-.337l2.528.674z" fill="#6073AC"/><path d="m299.802 206.273-20.563 14.329 11.967 28.996 22.249 5.225 16.518-16.183-4.72-31.019-25.451-1.348z" fill="#fff"/><path d="m323.231 210.15-22.755-1.348 11.967 43.662 14.833-14.498-4.045-27.816z" fill="#A6120D"/><path d="m282.104 221.782 10.45 25.961 19.721 4.721-11.967-43.662-18.204 12.98z" fill="#DD1B16"/><path d="m312.443 230.548-5.056 4.215-6.068 1.685-.843 7.924-5.225 1.517 5.394-35.402 11.798 20.061zm-.674-1.348-8.09-8.767-1.349 11.295 4.214-1.18 5.225-1.348z" fill="#F2F2F2"/><path d="m300.813 210.487 2.866 10.115 7.584 8.766-4.888 1.349 1.18 4.214 6.574-1.854 5.056 6.406 5.057-1.18-23.429-27.816z" fill="#B3B3B3"/><path d="m437.508 265.107 3.371-.675s-4.213 9.61-4.55 10.452c-.169.338-.338.506-.338.843-.168.843-.168 2.529-.168 2.529l-3.034.674s.169-1.854-.169-2.697c-.168-.843-.842-1.517-1.179-2.191-.338-.675-1.18-2.192-1.18-2.192l3.034-.674.842 1.685 3.371-7.754z" fill="#fff"/><path d="M431.609 268.31c.674.337 1.517 2.191 1.517 2.191s-3.202.843-4.888 1.18c-.337.169-1.517.338-1.517.338v8.26l-2.697.674s-.337-8.934-.168-10.452c0-.505.843-.505 2.022-1.011.675-.169 1.517-.337 2.023-.337 1.348-.675 2.865-1.18 3.708-.843zM421.833 272.356c.674 1.18.674 4.214.674 4.214s-3.539.674-5.393 1.18c-.506.169-1.349.337-1.349.506-.168.337.337 1.011.674 1.18.338.337 1.18.169 1.18.169 1.686-.169 4.888-1.181 4.888-1.181v2.698s-4.551 1.18-6.91 1.18c-.337 0-1.012-.169-1.18-.337-.169 0-.169-.169-.337-.337-.169 0-.337-.338-.337-.338-.843-1.18-.843-4.214-.506-5.731 0-.169 0-.338.169-.506 0-.337.168-.506.168-.674 0-.169.169-.169.169-.338 0-.168.168-.337.168-.337.169-.337.337-.505.506-.843.843-1.011 2.36-1.854 4.551-2.191.842-.169 2.022-.169 2.697.506-.338.505 0 1.011.168 1.18zm-2.191 2.697s0-.506-.506-1.012c-.337-.337-.843-.337-1.685-.337-2.36.337-1.854 2.192-1.854 2.192l4.045-.843zM408.686 273.199l2.697-.675s.168 7.418.168 11.126a25.016 25.016 0 0 1-3.033.675c-2.192.505-4.046 1.18-5.057-.169-1.18-1.348-1.011-4.046-1.011-5.731v-3.709l2.697-.674s.168 4.045.168 5.9c0 .674 0 1.348.337 1.854.337.337.674.337 1.686.169.337 0 1.348-.337 1.348-.337v-8.429zM400.09 276.402c.843 2.191.169 4.888-.169 7.248.843-.168 1.517-.337 1.686-.337.169 0 0 2.697-.169 2.697-.674.169-2.696.675-3.708.843-2.865.675-5.73 1.518-7.416.338-.674-.338-1.348-1.349-1.685-2.023a14.009 14.009 0 0 1-.506-3.709c0-1.18.168-2.023.337-3.035.674-2.528 2.528-4.551 6.236-5.057.675-.168 1.854 0 2.529.337l.337.169c1.011.337 2.022 1.517 2.528 2.529zm-2.865 4.888c0-1.18.337-2.191 0-3.203-.337-1.011-1.18-1.685-1.854-1.685-1.686-.169-3.034 1.011-3.54 1.685-.506 1.012-.506 1.855-.506 3.372 0 1.011.169 2.023.675 2.697 1.011 1.18 2.865.337 5.056 0 .169-1.011.169-1.854.169-2.866zM386.774 278.256v2.697c-1.011.337-1.854.337-3.033.674v-2.697c1.179-.337 1.854-.506 3.033-.674zM383.909 282.302c1.011-.337 1.854-.337 2.865-.675.169 2.192.169 5.732 0 8.092 0 1.517 0 2.697-.842 3.54-.169.169-.169 0-.169.169-.168.337-1.011.506-1.348.843-.674.337-1.686.337-2.529.506 0-1.012.169-2.023.169-2.866 2.36-.337 1.854-2.36 1.854-4.552-.168-1.18 0-4.383 0-5.057zM378.347 289.214c-.506 2.36-2.191 4.214-4.888 4.72-1.18.337-2.528.337-3.371.168-1.854-.337-3.54-1.348-4.72-2.697-1.517-1.854-2.528-4.889-.674-7.417l-.168.505v.338c-.337 5.563 5.562 8.766 10.45 7.248 1.348-.505 2.697-1.685 3.371-2.865zM377.167 282.807c-.168.506-1.011 1.518-1.517 1.855-1.854.843-3.371.337-4.214-.674-.168-.169-.337-.506-.337-.506-.337-.843-.674-2.023 0-2.866-.168.674 0 1.349.337 1.854.169.337.337.675.843 1.012.506.506.843.506 1.348.843.338.168.506.168.675.168.337-.337 1.348-.168 2.865-1.686z" fill="#fff"/><path d="M374.807 287.865c1.18-.337 2.36-1.18 3.034-2.023-.337 1.854-1.854 3.372-4.719 3.54-2.191.169-4.888-1.517-5.562-3.54-.506-1.517-.169-2.697.337-4.046-.169.674-.169 1.18-.169 1.517.843 3.372 4.382 5.226 7.079 4.552z" fill="#fff"/><path d="M386.774 281.627c.169 2.192.169 5.732 0 8.092 0 1.517 0 2.697-.842 3.54-.169.169-.169 0-.169.169-.168.337-1.011.506-1.348.843-.674.337-1.686.337-2.529.506 0-1.012.169-2.023.169-2.866 2.36-.337 1.854-2.36 1.854-4.552v-5.057c1.011-.169 1.854-.337 2.865-.675zM419.642 275.053l-4.214 1.011s-.337-1.854 1.854-2.191c.843-.169 1.18-.169 1.686.337.674.337.674.843.674.843zM364.694 284.493l.169-.505c-1.854 2.697-1.011 5.731.674 7.417 1.18 1.18 2.697 2.36 4.72 2.697.842.169 2.022.338 3.371-.168 2.696-.675 4.213-2.36 4.888-4.552v-.168c-.675 1.18-2.023 2.023-3.203 2.528-4.888 1.686-10.956-1.686-10.619-7.249zM433.126 270.501s-3.202.843-4.888 1.18c-.337.169-1.517.338-1.517.338v8.26l-2.697.674s-.337-8.934-.168-10.452c0-.505.843-.505 2.022-1.011.675-.169 1.517-.337 2.023-.337 1.348-.337 2.865-.843 3.54-.506.842-.169 1.685 1.854 1.685 1.854zM404.978 274.042s.169 4.045.169 5.9c0 .674 0 1.348.337 1.854.337.337.674.337 1.685.169.337 0 1.349-.337 1.349-.337l.168-8.429 2.697-.675s.168 7.418.168 11.126a25.016 25.016 0 0 1-3.033.675c-2.192.505-4.046 1.18-5.057-.169-1.18-1.348-1.011-4.046-1.011-5.731v-3.709l2.528-.674zM397.056 284.156c-2.191.337-4.045 1.18-5.057 0-.505-.674-.505-1.854-.674-2.697 0-1.349 0-2.36.506-3.372.337-.842 1.685-1.854 3.539-1.685.506 0 1.517.674 1.855 1.685.337.843.168 2.023 0 3.203 0 1.012 0 1.855-.169 2.866zM386.774 278.256v2.697c-1.011.337-1.854.337-3.034.674v-2.697c1.18-.337 1.855-.506 3.034-.674z" stroke="#fff" stroke-width="4.106" stroke-miterlimit="10" stroke-linejoin="round"/><path d="M422.339 276.739s-3.54.674-5.394 1.18c-.506.168-1.348.337-1.348.506-.169.337.337 1.011.674 1.18.337.337 1.18.168 1.18.168 1.685-.168 4.888-1.18 4.888-1.18v2.697s-4.551 1.18-6.911 1.18c-.337 0-1.011-.168-1.18-.337-.168 0-.168-.168-.337-.337-.169 0-.337-.337-.337-.337-.843-1.18-.843-4.214-.506-5.732 0-.168 0-.337.169-.505 0-.338.168-.506.168-.675 0-.168.169-.168.169-.337 0-.168.168-.337.168-.337.169-.337.338-.506.506-.843.843-1.011 2.36-1.854 4.551-2.191.843-.169 2.023-.169 2.697.505.168.169.337.506.505.843.338 1.517.338 4.552.338 4.552zM377.841 285.673c-.505 1.012-1.854 1.855-3.034 2.023-2.697.506-6.573-1.18-6.91-4.72 0-.337 0-.843.168-1.517-.674 1.349-1.011 2.529-.337 4.046.674 2.191 3.371 3.877 5.562 3.54 2.697.169 4.383-1.349 4.551-3.372z" stroke="#fff" stroke-width="4.106" stroke-miterlimit="10" stroke-linejoin="round"/><path d="M377.167 282.808c-1.348 1.517-2.528 1.348-3.034 1.348-.168 0-.337 0-.674-.168-.506-.169-.843-.338-1.348-.843-.338-.337-.675-.675-.843-1.012-.337-.337-.337-1.18-.337-1.854-.506.843-.337 2.191 0 2.866 0 .168.337.505.337.505.843.843 2.36 1.518 4.214.675.674.168 1.685-1.012 1.685-1.517zM440.711 264.432s-4.214 9.61-4.551 10.452c-.169.338-.337.506-.337.843-.169.843-.169 2.529-.169 2.529l-3.034.674s.169-1.854-.168-2.697c-.169-.843-.843-1.517-1.18-2.191-.337-.675-1.18-2.192-1.18-2.192l3.034-.674.843 1.685 3.202-7.586 3.54-.843zM399.921 283.65c.843-.168 1.517-.337 1.686-.337.168 0 0 2.697-.169 2.697-.674.169-2.697.675-3.708.843-2.865.675-5.731 1.518-7.416.338-.674-.338-1.348-1.349-1.686-2.023a14.049 14.049 0 0 1-.505-3.709c0-1.18.168-2.023.337-3.035.674-2.528 2.528-4.551 6.236-5.057.674-.168 1.854 0 2.529.337l.337.169c1.011.337 2.022 1.517 2.528 2.697.843 2.023.168 4.72-.169 7.08z" stroke="#fff" stroke-width="4.106" stroke-miterlimit="10" stroke-linejoin="round"/><path d="m437.508 265.107 3.371-.675s-4.213 9.61-4.55 10.452c-.169.338-.338.506-.338.843-.168.843-.168 2.529-.168 2.529l-3.034.674s.169-1.854-.169-2.697c-.168-.843-.842-1.517-1.179-2.191-.338-.675-1.18-2.192-1.18-2.192l3.034-.674.842 1.685 3.371-7.754z" fill="#000"/><path d="M431.609 268.31c.674.337 1.517 2.191 1.517 2.191s-3.202.843-4.888 1.18c-.337.169-1.517.338-1.517.338v8.26l-2.697.674s-.337-8.934-.168-10.452c0-.505.843-.505 2.022-1.011.675-.169 1.517-.337 2.023-.337 1.348-.675 2.865-1.18 3.708-.843zM421.833 272.356c.674 1.18.674 4.214.674 4.214s-3.539.674-5.393 1.18c-.506.169-1.349.337-1.349.506-.168.337.337 1.011.674 1.18.338.337 1.18.169 1.18.169 1.686-.169 4.888-1.181 4.888-1.181v2.698s-4.551 1.18-6.91 1.18c-.337 0-1.012-.169-1.18-.337-.169 0-.169-.169-.337-.337-.169 0-.337-.338-.337-.338-.843-1.18-.843-4.214-.506-5.731 0-.169 0-.338.169-.506 0-.337.168-.506.168-.674 0-.169.169-.169.169-.338 0-.168.168-.337.168-.337.169-.337.337-.505.506-.843.843-1.011 2.36-1.854 4.551-2.191.842-.169 2.022-.169 2.697.506-.338.505 0 1.011.168 1.18zm-2.191 2.697s0-.506-.506-1.012c-.337-.337-.843-.337-1.685-.337-2.36.337-1.854 2.192-1.854 2.192l4.045-.843zM408.686 273.199l2.697-.675s.168 7.418.168 11.126a25.016 25.016 0 0 1-3.033.675c-2.192.505-4.046 1.18-5.057-.169-1.18-1.348-1.011-4.046-1.011-5.731v-3.709l2.697-.674s.168 4.045.168 5.9c0 .674 0 1.348.337 1.854.337.337.674.337 1.686.169.337 0 1.348-.337 1.348-.337v-8.429zM400.09 276.402c.843 2.191.169 4.888-.169 7.248.843-.168 1.517-.337 1.686-.337.169 0 0 2.697-.169 2.697-.674.169-2.696.675-3.708.843-2.865.675-5.73 1.518-7.416.338-.674-.338-1.348-1.349-1.685-2.023a14.009 14.009 0 0 1-.506-3.709c0-1.18.168-2.023.337-3.035.674-2.528 2.528-4.551 6.236-5.057.675-.168 1.854 0 2.529.337l.337.169c1.011.337 2.022 1.517 2.528 2.529zm-2.865 4.888c0-1.18.337-2.191 0-3.203-.337-1.011-1.18-1.685-1.854-1.685-1.686-.169-3.034 1.011-3.54 1.685-.506 1.012-.506 1.855-.506 3.372 0 1.011.169 2.023.675 2.697 1.011 1.18 2.865.337 5.056 0 .169-1.011.169-1.854.169-2.866zM386.774 278.256v2.697c-1.011.337-1.854.337-3.033.674v-2.697c1.179-.337 1.854-.506 3.033-.674zM383.909 282.302c1.011-.337 1.854-.337 2.865-.675.169 2.192.169 5.732 0 8.092 0 1.517 0 2.697-.842 3.54-.169.169-.169 0-.169.169-.168.337-1.011.506-1.348.843-.674.337-1.686.337-2.529.506 0-1.012.169-2.023.169-2.866 2.36-.337 1.854-2.36 1.854-4.552-.168-1.18 0-4.383 0-5.057z" fill="#000"/><path d="M378.347 289.214c-.506 2.36-2.191 4.214-4.888 4.72-1.18.337-2.528.337-3.371.168-1.854-.337-3.54-1.348-4.72-2.697-1.517-1.854-2.528-4.889-.674-7.417l-.168.505v.338c-.337 5.563 5.562 8.766 10.45 7.248 1.348-.505 2.697-1.685 3.371-2.865zM377.167 282.807c-.168.506-1.011 1.518-1.517 1.855-1.854.843-3.371.337-4.214-.674-.168-.169-.337-.506-.337-.506-.337-.843-.674-2.023 0-2.866-.168.674 0 1.349.337 1.854.169.337.337.675.843 1.012.506.506.843.506 1.348.843.338.168.506.168.675.168.337-.337 1.348-.168 2.865-1.686z" fill="#1563AA"/><path d="M374.807 287.865c1.18-.337 2.36-1.18 3.034-2.023-.337 1.854-1.854 3.372-4.719 3.54-2.191.169-4.888-1.517-5.562-3.54-.506-1.517-.169-2.697.337-4.046-.169.674-.169 1.18-.169 1.517.843 3.372 4.382 5.226 7.079 4.552z" fill="#1563AA"/><path d="m1096.22 184.916-78.86 26.716 9.3 27.461 78.86-26.715-9.3-27.462z" fill="#fff"/><path d="m1025.75 215.039-.17-.506 8.09-2.697.17.506-.34.168c-.84.337-1.34.506-1.68.843-.34.337-.34.506-.34 1.012 0 .337.34 1.348.85 2.697l2.86 8.597c.34 1.349.84 2.192 1.01 2.698.34.337.51.674.84.843.34.168 1.02-.001 1.69-.338l.51-.168.16.506-8.09 2.697-.16-.506.5-.169c.68-.337 1.18-.505 1.52-.842.33-.338.33-.675.33-1.18 0-.506-.33-1.349-.84-2.698l-2.86-8.597c-.34-1.349-.85-2.192-1.01-2.698-.34-.337-.34-.505-.85-.674-.33 0-1.01 0-1.85.337h-.34v.169z" fill="#000"/><path d="M1059.12 221.782h-.5l-8.6-4.046c-.17 0-.33-.168-.33-.168-.17-.169-.34-.338-.85-.506-.33-.337-.67-.506-1.18-.843-.33-.337-.67-.674-1.01-1.18-.34-.337-.5-.843-.67-1.349-.51-1.517-.34-2.866.17-4.046.5-1.18 1.68-1.854 3.2-2.528.34-.169.84-.338 1.35-.338.5 0 1.01 0 1.51.169.34.169.85.337 1.18.337.34.169.68.337 1.02.337.16-.337.33-.674.5-1.011.17-.337.34-.674.68-1.18.33-.506.67-.674 1.17-1.012.34-.337.85-.505 1.18-.674 1.52-.506 2.87-.506 4.22 0 1.18.506 2.02 1.686 2.53 3.203.5 1.517.33 3.372-.85 5.563l-4.38 8.429c.17.674 0 .843-.34.843z" fill="#E34239"/><path d="M1072.78 202.058c1.39 0 2.53-1.132 2.53-2.528a2.534 2.534 0 0 0-2.53-2.529 2.528 2.528 0 1 0 0 5.057z" fill="#fff" stroke="#000" stroke-width=".411" stroke-miterlimit="10"/><path d="M1096.88 198.855c-.84-2.528-2.7-4.551-5.06-5.731-2.36-1.18-5.05-1.349-7.58-.506-2.53.843-4.55 2.697-5.73 5.057-2.02 4.215-1.01 8.935 2.36 11.969l-2.19 4.552c-.17.337-.17.506 0 .843.17.337.33.506.5.674l2.7 1.18c.34.169.5.169.84 0 .34-.168.51-.337.68-.506l2.19-4.551c1.85.337 3.54.337 5.22-.337 2.53-.843 4.55-2.698 5.73-5.058 1.01-2.36 1.18-5.057.34-7.586zm-11.8 12.644-2.86 5.057-3.04-2.192 2.19-5.057-3.2-7.08 8.09 2.36 5.06 5.057-6.24 1.855z" fill="#000"/><path d="m1078.17 202.058 3.2 7.081-2.19 5.226 3.04 2.023 2.86-4.889 6.07-2.023-4.89-5.058-8.09-2.36z" fill="#000"/><path d="M741.912 261.735c-17.193 0-31.014 3.203-31.014 7.249 0 4.046 13.99 7.249 31.014 7.249 17.192 0 31.013-3.203 31.013-7.249.169-3.877-13.821-7.249-31.013-7.249z" fill="#E6E7E8"/><path d="M712.415 227.514c-.843.168-1.685.337-2.528.843-.506.168-.843.505-1.18.843-1.686 1.348-2.697 3.371-3.034 5.731-.843 5.395 1.686 12.812 6.911 19.218 1.517 1.855 3.034 3.035 4.888 3.709-.843 1.011-1.349 2.192-1.349 3.54 0 2.866 2.36 5.395 5.394 5.395 2.36 0 4.214-1.349 5.056-3.372.169-.506.337-1.18.337-1.854 0-1.18-.337-2.36-1.011-3.203 5.225-1.18 4.72-4.552 7.585-6.743l-.843-12.981c-6.405-7.923-14.495-12.138-20.226-11.126zM778.824 235.1c-.337-2.529-1.348-4.552-3.034-5.9-.337-.338-.843-.506-1.18-.843-.842-.337-1.685-.675-2.528-.843-5.731-1.012-13.99 3.203-20.057 10.789l-.843 12.98c2.865 2.361 2.36 5.563 7.585 6.744-.675.842-1.012 2.022-1.012 3.203 0 .674.169 1.348.337 2.022.843 2.023 2.697 3.372 5.057 3.372 3.034 0 5.394-2.36 5.394-5.394 0-1.349-.506-2.529-1.349-3.541 1.686-.674 3.371-1.854 4.888-3.708 5.057-6.238 7.585-13.487 6.742-18.881z" fill="#C89E48"/><path d="m762.475 223.805-2.023-2.529c-4.382-4.888-10.956-8.091-18.203-8.091-7.248 0-13.653 3.034-18.204 8.091l-2.023 2.529c-2.696 3.877-4.213 8.598-4.213 13.655 0 4.383 1.18 8.429 3.202 11.969 1.854 3.372 4.551 6.069 7.754 8.26 3.033 2.023 6.742 3.372 10.618 3.878 1.012.168 1.854.168 2.866.168 1.011 0 2.022 0 2.865-.168 3.877-.506 7.585-1.855 10.619-3.878 3.202-2.023 5.73-4.888 7.753-8.26 2.023-3.54 3.203-7.586 3.203-11.969 0-5.057-1.686-9.609-4.214-13.655z" fill="#C89E48"/><path d="M742.923 259.544c-4.888 0-9.439-.506-13.316-1.349 2.866 1.854 6.237 3.034 9.776 3.372 1.012.168 1.854.168 2.866.168 1.011 0 2.022 0 2.865-.168 3.371-.338 6.405-1.518 9.27-3.035-3.539.675-7.416 1.012-11.461 1.012z" fill="#177AA0"/><path d="M742.586 207.453h-.506v7.754h5.394l3.539 5.058v38.604c0 .675-.337 1.012-.674 1.518-1.011 1.18-1.685 2.697-1.685 4.383a6.402 6.402 0 0 0 6.404 6.406 6.403 6.403 0 0 0 6.405-6.406c0-.506 0-1.012-.168-1.518-.169-.674.337-1.18 1.011-1.854 6.574-5.563 10.619-13.823 10.619-23.095-.169-16.858-13.653-30.513-30.339-30.85z" fill="#E9C464"/><path d="M735.338 224.311c-1.348 3.203-6.742 13.317-7.079 19.049-.169 3.372 6.742 16.858-2.528 14.835-6.405-1.349-14.158-6.237-14.158-22.589 0-16.353 17.023-28.153 30.17-28.153 11.967.168-6.405 16.858-6.405 16.858z" fill="#E9C464"/><path d="M746.462 194.978a4.173 4.173 0 0 1-4.213 4.214 4.173 4.173 0 0 1-4.214-4.214c0-2.36 1.854-4.046 4.214-4.046 2.359 0 4.213 1.854 4.213 4.046z" fill="#231F20"/><path d="M758.598 212.342c0 8.934-7.248 16.183-16.349 16.183-9.102 0-16.35-7.249-16.35-16.183 0-8.935 7.248-16.184 16.35-16.184 9.101 0 16.349 7.249 16.349 16.184z" fill="#EED080"/><path d="M732.641 215.376c0-.674.674-1.349 1.349-1.349.674 0 1.348.675 1.348 1.349h-2.697zM749.159 215.376c0-.674.674-1.349 1.349-1.349.674 0 1.348.675 1.348 1.349h-2.697z" fill="#222"/><path d="M747.979 222.456a3.25 3.25 0 0 1-1.685-.505 2.627 2.627 0 0 1-1.012-1.349 2.883 2.883 0 0 1 0-1.686 2.62 2.62 0 0 1 1.012-1.348c-.506 1.011-.674 2.022-.337 2.865.337.843 1.011 1.518 2.022 2.023z" fill="#C89E48"/><path d="M746.125 220.602c-.505.674-1.011.843-1.685 1.18-.674.169-1.18.337-1.854.337-1.18.169-2.529-.168-3.371-.843 1.18.506 2.191.337 3.371.169l1.517-.506a1.728 1.728 0 0 0 1.011-.843l1.011.506z" fill="#C89E48"/><path d="M742.248 190.932c2.36 0 4.214 1.854 4.214 4.046 0 .506-.169 1.18-.337 1.686 7.079 1.686 12.472 8.092 12.472 15.678 5.563 3.54 9.945 8.766 12.305 15.003.505 0 .842 0 1.348.169.843.168 1.686.337 2.528.843.506.168.843.505 1.18.843 1.686 1.348 2.697 3.371 3.034 5.9.674 5.394-1.685 12.643-6.91 19.218-1.517 1.854-3.034 3.034-4.888 3.709.842 1.011 1.348 2.191 1.348 3.54 0 2.866-2.36 5.394-5.394 5.394-.674 0-1.348-.168-1.854-.337-.674 2.697-3.202 4.72-6.236 4.72a6.403 6.403 0 0 1-6.405-6.406c0-1.517.506-3.034 1.517-4.214-1.517.506-3.203.843-4.888 1.011-1.011.169-1.854.169-2.865.169-1.012 0-2.023 0-2.866-.169-3.708-.505-7.079-1.686-10.113-3.54-.506.169-1.18.337-1.854.337-.506 0-1.011 0-1.685-.168.674.843 1.011 2.023 1.011 3.203 0 .674-.169 1.348-.337 1.854-.843 2.023-2.697 3.372-5.057 3.372-3.034 0-5.393-2.36-5.393-5.395 0-1.349.505-2.529 1.348-3.54-1.686-.674-3.371-1.854-4.888-3.709-5.225-6.574-7.753-13.823-6.911-19.218.337-2.36 1.349-4.383 3.034-5.731.337-.338.843-.506 1.18-.843a8.869 8.869 0 0 1 2.528-.843c.338 0 .506 0 .843-.169 2.36-6.237 7.079-11.463 12.642-15.003 0-7.586 5.393-13.992 12.472-15.847-.168-.505-.337-1.011-.337-1.686 0-2.022 1.854-3.877 4.214-3.877zm0-3.371c-3.877 0-7.079 3.034-7.416 6.743-3.034 1.18-5.9 3.203-7.922 5.9-2.36 3.034-3.877 6.575-4.214 10.452-5.225 3.709-9.439 8.429-11.799 13.823-.842.169-1.685.506-2.359.843-.674.337-1.18.675-1.854 1.18-2.36 1.855-3.708 4.552-4.214 7.924-.506 3.203 0 6.911 1.348 10.789 1.349 3.708 3.54 7.586 6.237 11.126.842 1.18 2.022 2.191 3.034 2.866-.169.674-.337 1.348-.337 2.191 0 4.72 3.876 8.598 8.764 8.598 3.54 0 6.911-2.192 8.091-5.563.337-.675.505-1.349.505-2.192 2.697 1.349 5.731 2.192 8.765 2.529 1.18.168 2.191.168 3.371.168 1.011 0 1.854 0 2.865-.168a9.717 9.717 0 0 0 9.776 9.44c3.371 0 6.405-1.686 8.091-4.383 4.719 0 8.596-3.877 8.596-8.597 0-.675-.169-1.518-.337-2.192 1.18-.843 2.191-1.854 3.034-2.866 2.697-3.371 4.888-7.249 6.236-10.957 1.349-3.878 1.854-7.586 1.349-10.789-.506-3.372-2.023-6.238-4.214-8.092-.506-.506-1.18-.843-1.686-1.18-.843-.506-1.854-.843-3.034-1.012a34.758 34.758 0 0 0-11.293-13.823c-.337-3.709-1.854-7.418-4.213-10.284-2.023-2.528-4.888-4.551-7.922-5.9-.169-3.54-3.371-6.574-7.248-6.574z" fill="#fff"/><path d="M726.91 241.506c5.057-.337 7.585 4.383 7.08 8.26-.338 4.046-3.203 10.284-9.102 8.092-2.36-.843-2.528-6.912-2.191-10.283.337-3.203 1.179-5.901 4.213-6.069z" fill="#E9C464"/><path d="M726.911 241.506c5.73-1.012 7.584 4.383 7.079 8.26-.337 4.046-3.203 10.283-9.102 8.092" fill="#E9C464"/><path d="M745.283 232.234v1.18c0 1.686-.675 3.203-1.686 4.383l-1.517 1.517c-.674.506-1.517.843-2.36 1.012-.168 0-.505.168-.674.168h-.674v-1.348c0-.338 0-.506.169-.843a8.2 8.2 0 0 1 .674-1.855c.337-.505.674-1.18 1.18-1.517.505-.506 1.011-1.011 1.517-1.348.674-.506 1.517-.843 2.359-1.181.169 0 .506-.168.674-.168 0 .168.169.168.338 0z" fill="url(#g)"/><path d="M753.036 257.015c-.674-.337-1.348-.674-1.854-1.18-.674-.506-1.18-1.18-1.686-1.854-.505-.675-.842-1.518-1.011-2.192-.168-.337-.168-.843-.168-1.18v-.843c0-1.011.337-1.854.674-2.697.337-.674.843-1.349 1.517-2.023.505-.506 1.011-1.012 1.685-1.349-.674-.843-1.517-1.686-2.528-2.191-.674-.337-1.348-.675-2.191-.843-.337 0-.506-.169-.843-.169H744.271c-.842 0-1.517.169-2.191.506-.337.169-.674.337-1.011.337-.337.169-.506.169-.843.337-.337.169-.506.169-.843.169h-.674c-.168 0-.506 0-.674-.169-.337-.168-.674-.168-1.011-.337-.337-.168-.675-.337-1.012-.337-.505-.169-.842-.337-1.348-.337-.337 0-.843-.169-1.18-.169h-.843c-.337 0-.674 0-.842.169-1.349.168-2.36.674-3.54 1.349 4.045.505 5.394 5.057 5.057 8.597-.338 3.877-2.36 8.598-7.585 7.923.168.337.337.843.505 1.18.506 1.012 1.012 2.023 1.686 2.866.337.674.843 1.18 1.348 1.854.506.506 1.012 1.012 1.517 1.349.506.337.843.506 1.349.674.337 0 .505.169.842.169H733.821c.169 0 .506 0 .674-.169.338 0 .675-.168 1.012-.337.505-.168 1.18-.505 1.685-.674.337-.169.674-.169 1.012-.169h1.685c.506 0 .843.169 1.18.338l1.517.505c.506.169.843.337 1.348.337.169 0 .337 0 .674.169h.675c.505 0 1.011-.169 1.348-.506.506-.168.843-.505 1.18-.843a7.964 7.964 0 0 0 1.685-1.685c1.349-1.518 2.36-3.372 3.203-5.226.168-.338.169-.506.337-.843.169-.337.169-.337 0-.506.169 0 .169 0 0 0 .169 0 0 0 0 0z" fill="url(#h)"/><defs><linearGradient id="a" x1="522.627" y1="259.544" x2="575.641" y2="259.544" gradientUnits="userSpaceOnUse"><stop stop-color="#E6E6E6"/><stop offset=".081" stop-color="#CFCFCF"/><stop offset=".188" stop-color="#B7B7B7"/><stop offset=".302" stop-color="#A6A6A6"/><stop offset=".427" stop-color="#9C9C9C"/><stop offset=".583" stop-color="#999"/><stop offset=".597" stop-color="#A1A1A1"/><stop offset=".648" stop-color="#BABABA"/><stop offset=".705" stop-color="#CECECE"/><stop offset=".771" stop-color="#DCDCDC"/><stop offset=".853" stop-color="#E4E4E4"/><stop offset="1" stop-color="#E6E6E6"/></linearGradient><linearGradient id="b" x1="515.379" y1="229.284" x2="561.114" y2="229.284" gradientUnits="userSpaceOnUse"><stop offset=".075" stop-color="#E6E6E6"/><stop offset=".157" stop-color="#F2F2F2"/><stop offset=".287" stop-color="#FCFCFC"/><stop offset=".492" stop-color="#FCFCFC"/><stop offset=".763" stop-color="#F2F2F2"/><stop offset="1" stop-color="#E6E6E6"/></linearGradient><linearGradient id="c" x1="515.379" y1="229.284" x2="561.114" y2="229.284" gradientUnits="userSpaceOnUse"><stop offset=".02" stop-color="#CACACA"/><stop offset=".7" stop-color="#565656" stop-opacity=".43"/><stop offset="1" stop-color="#979797"/></linearGradient><linearGradient id="d" x1="515.379" y1="261.061" x2="561.114" y2="261.061" gradientUnits="userSpaceOnUse"><stop stop-color="#E6E6E6"/><stop offset=".117" stop-color="#F2F2F2"/><stop offset=".287" stop-color="#FCFCFC"/><stop offset=".5" stop-color="#fff"/><stop offset=".713" stop-color="#FCFCFC"/><stop offset=".883" stop-color="#F2F2F2"/><stop offset="1" stop-color="#E6E6E6"/></linearGradient><linearGradient id="e" x1="410.201" y1="208.27" x2="426.968" y2="208.27" gradientUnits="userSpaceOnUse"><stop stop-color="#B1BEDD"/><stop offset="1" stop-color="#3F60AC"/></linearGradient><linearGradient id="f" x1="396.505" y1="218.722" x2="396.505" y2="196.851" gradientUnits="userSpaceOnUse"><stop stop-color="#B1BEDD"/><stop offset="1" stop-color="#728AC2"/></linearGradient><linearGradient id="g" x1="741.826" y1="232.308" x2="741.826" y2="240.567" gradientUnits="userSpaceOnUse"><stop stop-color="#fff"/><stop offset=".583" stop-color="#F9F9F9"/><stop offset="1" stop-color="#F1F1F2"/></linearGradient><linearGradient id="h" x1="739.346" y1="240.119" x2="739.346" y2="266.24" gradientUnits="userSpaceOnUse"><stop stop-color="#fff"/><stop offset=".583" stop-color="#F9F9F9"/><stop offset="1" stop-color="#F1F1F2"/></linearGradient></defs></svg>