<svg width="1440" height="362" fill="none" xmlns="http://www.w3.org/2000/svg"><path d="m-86 432 198.462-209.375H1329.06L1526 432H-86z" fill="#A3A3A3"/><path d="M819.4 142.213c-2.532-3.54-5.063-7.08-8.101-10.115-17.72-19.724-43.371-32.199-72.229-32.199-28.858 0-54.51 12.307-72.398 32.199-2.869 3.203-5.57 6.575-7.932 10.115-10.801 15.509-16.876 34.39-16.876 54.619 0 17.364 4.725 33.716 12.657 47.877 7.594 13.149 18.057 24.444 30.714 32.873 12.32 8.26 26.833 13.655 42.359 15.509 3.882.337 7.763.674 11.476.674 4.05 0 7.763-.337 11.644-.674 15.526-1.854 30.04-7.249 42.359-15.678 12.488-8.429 23.12-19.724 30.546-32.704 8.1-14.161 12.657-30.513 12.657-47.877 0-20.06-6.076-38.941-16.876-54.619z" fill="#9E9E9E"/><path d="M707.681 288.034c-1.688-1.855-2.869-3.372-2.869-5.901V127.547l13.838-19.893h40.503l14.007 20.23v154.587c0 2.528-1.182 4.046-2.869 5.9-3.376 3.54-5.569 8.092-6.244 13.149h50.796c-.168-.674-.337-1.349-.337-2.023-.506-2.866 1.181-4.889 3.881-7.417 25.99-22.421 42.528-55.631 42.528-92.55 0-66.926-53.834-121.377-120.664-122.557l.169-.337c-67.842 0-122.858 54.788-122.858 122.557 0 36.918 16.539 70.129 42.528 92.55 2.532 2.528 4.388 4.383 3.882 7.417-.169.843-.338 1.517-.338 2.36h50.797c-1.013-5.057-3.375-9.778-6.75-13.486z" fill="#C1C1C1"/><path d="M739.07 263.252c-5.063 0-9.113 2.361-9.113 5.058v.506c.506 2.528 4.388 4.551 9.113 4.551s8.607-1.854 9.113-4.551v-.506c0-2.866-4.219-5.058-9.113-5.058z" fill="#7E7E7E"/><path d="M741.77 284.999c-19.07 0-37.296-1.854-53.497-5.226 11.644 7.081 24.977 11.97 39.152 13.655 3.882.337 7.763.675 11.476.675 4.05 0 7.763-.338 11.645-.675 13.163-1.685 25.651-5.731 36.789-12.306-14.007 2.529-29.364 3.877-45.565 3.877z" fill="#676767"/><path d="M804.212 96.36c0 35.907-29.196 64.902-65.142 64.902s-65.142-29.164-65.142-64.903c0-35.907 29.196-64.902 65.142-64.902s65.142 29.164 65.142 64.903z" fill="#CCC"/><path d="M801.343 115.578c-4.388 18.206-4.557 83.783-12.995 89.346 3.206-7.923.844-62.542-.337-68.948-1.351-9.947 13.332-20.398 13.332-20.398zM684.223 145.922c0 14.16-.338 57.654-5.569 60.688 3.038-6.912-4.557-70.466-8.101-86.144-2.362-9.777 13.67 25.456 13.67 25.456z" fill="#9E9E9E"/><path d="M803.536 96.36c0 35.907-29.026 64.902-64.972 64.902s-64.973-28.995-64.973-64.903c0-35.907 29.027-64.902 64.973-64.902s64.972 28.995 64.972 64.903z" fill="#CCC"/><path d="M811.299 92.145c-.843-11.8-7.763-40.627-26.157-54.451-16.876-12.475-29.702-17.195-45.228-15.846-3.882.337-12.826 2.36-16.539 5.226-34.258 0-53.497 42.481-55.016 49.899-4.725 21.746 2.7 57.148 7.257 70.466 8.438 24.612 5.738 70.297 7.594 77.715 5.232-12.307 10.463-60.014 5.063-87.998-2.025-10.621-3.544-15.341-4.219-29.165-.338-12.306 19.239-29.67 32.064-37.93 11.982 10.79 44.722 6.743 56.873 11.8 8.775 3.54 21.939 21.916 22.614 34.222 3.206 51.417-8.776 95.753-4.219 105.53 3.712-26.804 19.913-72.151 19.913-129.468z" fill="#AEAEAE"/><path d="M723.882 26.736c2.531-2.191 6.581-5.731 11.138-6.911-3.544 2.36-3.375 4.889-4.388 6.743s-6.75.168-6.75.168zM724.388 26.905c-2.363-.506-11.645-2.023-14.007.169 2.7-.338 5.231 1.18 6.244 1.854 1.519 1.011 7.763-2.023 7.763-2.023z" fill="#AEAEAE"/><path d="M705.487 115.409c0-3.035 2.531-5.395 5.569-5.395s5.569 2.529 5.569 5.395h-11.138zM759.659 115.409c0-3.035 2.531-5.395 5.569-5.395 3.037 0 5.569 2.529 5.569 5.395h-11.138z" fill="#000"/><path d="M752.233 132.435c0 3.878-7.256 5.226-14.176 5.226-6.75 0-14.175-2.36-14.175-5.226h28.351z" fill="#fff"/><path d="M1188.48 131.087c-2.53-3.878-5.57-7.586-8.61-10.958-19.07-21.241-46.91-34.559-77.8-34.559-30.88 0-58.72 13.318-77.79 34.559-3.21 3.372-6.08 7.08-8.61 10.958-11.48 16.689-18.228 36.918-18.228 58.834 0 18.88 4.898 36.413 13.668 51.585 8.1 14.16 19.41 26.298 33.08 35.233 13.33 8.934 28.86 14.835 45.56 16.689 4.05.337 8.27.674 12.32.674 4.22 0 8.44-.337 12.49-.843 16.71-1.854 32.24-7.754 45.74-16.689 13.5-9.103 24.8-21.072 32.9-35.233 8.61-15.172 13.67-32.873 13.67-51.585-.16-21.578-6.92-41.808-18.39-58.665z" fill="#9C9C9C"/><path d="M1072.37 281.628c-1.52-1.855-2.7-3.372-2.7-5.732V126.535l13.33-19.218h39.16l13.5 19.555v149.192c0 2.361-1.18 3.878-2.7 5.732a23.492 23.492 0 0 0-6.25 12.981h48.94c-.17-.843-.33-1.686-.33-2.36-.51-2.866 1.18-4.721 3.71-7.081 25.14-21.746 41.01-53.776 41.01-89.346 0-64.566-51.81-116.994-116.28-118.174l.17-.337c-65.48 0-118.47 52.933-118.47 118.173 0 35.739 15.86 67.769 41.01 89.347 2.53 2.36 4.22 4.215 3.71 7.08-.34.843-.34 1.855-.5 2.529h49.1c-.84-4.889-3.03-9.44-6.41-12.98z" fill="silver"/><path d="M1101.91 261.229c-5.41 0-9.96 2.529-9.96 5.564v.505c.5 2.698 4.72 4.889 9.79 4.889 5.06 0 9.28-2.191 9.78-4.889v-.505c.17-3.035-4.21-5.564-9.61-5.564z" fill="#7E7E7E"/><path d="M1104.77 284.662c-20.58 0-40.16-2.023-57.54-5.563 12.49 7.755 27 12.812 42.19 14.666 4.05.506 8.27.675 12.32.675 4.22 0 8.43-.338 12.48-.675a103.93 103.93 0 0 0 39.49-12.98c-14.85 2.36-31.55 3.877-48.94 3.877z" fill="#272727"/><path d="M1167.38 122.321c-.84 2.866-3.37 5.394-6.75 5.394-3.37 0-6.41-2.528-6.41-6.069 0-3.371 8.1-15.003 11.48-15.003 0 0-.68 5.394.84 9.272.84 2.191 1.35 4.551.84 6.406zM1036.26 121.646c.84 2.866 3.37 5.395 6.75 5.395 3.37 0 6.41-2.529 6.41-6.069 0-3.372-8.1-15.003-11.47-15.003 0 0 .67 5.394-.85 9.271-1.01 2.192-1.35 4.552-.84 6.406z" fill="#B4B4B4"/><path d="M1163.5 120.803c0 1.349-1.18 2.529-2.53 2.529-1.35 0-2.53-1.18-2.53-2.529 0-1.348 1.18-2.528 2.53-2.528 1.35 0 2.53 1.18 2.53 2.528z" fill="#202020"/><path d="M1171.6 81.862c0 38.267-31.22 69.454-69.86 69.454-38.65 0-69.87-31.018-69.87-69.454 0-38.268 31.22-69.286 69.87-69.286 38.64-.169 69.86 31.018 69.86 69.286z" fill="#CCC"/><path d="M1117.5 127.096c1.69 0 2.7-1.854 1.86-3.203-3.21-4.889-9.96-4.046-17.72-4.046-7.76 0-14.51-.843-17.72 4.046-1.01 1.349.17 3.203 1.86 3.203h31.72z" fill="#fff"/><path d="M1060.39 109.677c0-3.203 2.53-5.731 5.91-5.731 3.2 0 5.73 2.528 5.73 5.731h-11.64zM1131.44 109.677c0-3.203 2.53-5.731 5.9-5.731 3.21 0 5.91 2.528 5.91 5.731h-11.81z" fill="#222"/><path d="M1036.76 108.16s7.43-.843 6.42-11.8c-1.02-10.958-2.03-15.341 7.08-16.184 0 0-7.08-9.272 9.96-22.59 0 0 14.51-10.114 27-4.383 12.49 5.732 19.24 5.9 38.65-.168 0 0 21.6-7.586 18.56 16.689 0 0 5.91 7.417 15.19 7.417 0 0-3.71 15.847 6.58 31.019 0 0 9.45-15.004 5.74-24.275 0 0 6.92-17.87-4.22-27.816 0 0 .85-10.789-9.96-17.532 0 0 2.2-4.215 2.7-7.08 0 0-4.55 2.023-6.58 1.517 0 0 1.02-16.858-20.25-14.666 0 0-6.41-2.023-5.57-8.935 0 0-5.06 1.18-6.58 3.877 0 .169-.17.169-.17.337 0 0-10.8-6.237-5.57-12.98 0 0-7.42 1.18-10.97 7.754 0 0-6.92-6.743-14.51-6.574 0 0 6.75 12.137-5.91 11.632-12.65-.506-20.92 4.889-23.79 11.632 0 0-9.62-.337-13.33 9.271 0 0-4.22.843-6.92-1.348 0 0-.34 7.08 5.9 7.08 0 0-17.88 11.126-13.5 28.49 0 0-5.57 5.057-1.18 7.755.17.168-1.52 19.555 5.23 31.861z" fill="#2C2C2C"/><path d="M441.545 145.416c-2.531-3.709-5.4-7.249-8.438-10.789-18.732-20.735-45.734-33.716-75.942-33.716-30.208 0-57.21 12.981-75.942 33.716-3.038 3.371-5.738 6.912-8.438 10.789-11.307 16.352-17.72 36.076-17.72 57.485 0 18.207 4.894 35.402 13.332 50.237 7.763 13.823 18.901 25.624 32.233 34.558 12.995 8.598 28.183 14.498 44.384 16.353 4.05.337 7.932.674 12.151.674 4.219 0 8.269-.337 12.32-.674 16.369-1.855 31.558-7.755 44.384-16.353 13.163-8.766 24.132-20.566 32.064-34.39 8.607-14.835 13.332-32.03 13.332-50.236 0-21.578-6.582-41.302-17.72-57.654z" fill="#9E9E9E"/><path d="M356.996 272.356c-5.231 0-9.619 2.528-9.619 5.394v.506c.506 2.697 4.556 4.889 9.451 4.889 4.894 0 9.113-2.023 9.45-4.889v-.506c.506-2.866-3.881-5.394-9.282-5.394z" fill="#7E7E7E"/><path d="M360.034 295.114c-20.083 0-39.153-1.854-56.029-5.395 12.32 7.586 26.327 12.475 41.178 14.33 4.05.337 7.932.674 12.151.674 4.219 0 8.269-.337 12.319-.674 13.839-1.686 27.002-6.069 38.478-12.812-15.02 2.528-31.221 3.877-48.097 3.877z" fill="#676767"/><path d="m358.178 76.636.168-.337c-71.217 0-128.933 57.485-128.933 128.625 0 38.942 17.383 73.669 44.553 97.27 2.7 2.529 4.725 4.72 4.05 7.755-.506 2.023 50.46-6.743 46.072-11.463-1.688-2.023-3.038-3.709-3.038-6.238v-162.51l14.514-20.904h42.696l14.682 21.073v162.341c0 2.529-1.35 4.215-3.037 6.238-4.388 4.888 46.577 13.654 46.071 11.463-.506-3.035 1.182-5.226 4.05-7.755 27.34-23.601 44.553-58.328 44.553-97.27.169-69.96-56.197-126.94-126.401-128.288z" fill="#C1C1C1"/><path d="M424.332 92.988c0 37.762-30.715 68.443-68.517 68.443-37.803 0-68.517-30.681-68.517-68.443s30.714-68.275 68.517-68.275c37.802 0 68.517 30.513 68.517 68.275z" fill="#CCC"/><path d="M320.544 110.52c0-3.203 2.7-5.9 5.907-5.9 3.206 0 5.906 2.697 5.906 5.9h-11.813zM379.104 110.52c0-3.203 2.7-5.9 5.906-5.9 3.207 0 5.907 2.697 5.907 5.9h-11.813z" fill="#222"/><path d="M342.145 141.033c-2.025.337-3.544-2.192-2.194-3.877 3.207-3.878 8.945-5.058 15.358-5.058 6.244 0 11.813 1.349 15.019 4.889 1.519 1.686.169 4.214-2.025 3.877-3.206-.337-7.932-.843-12.994-.843-5.063.169-9.957.506-13.164 1.012z" fill="#fff"/><path d="M424.163 98.888s-1.519.506-2.869 1.517c-1.35 1.012-2.531 3.878-2.531 3.878s-3.376 23.601-26.665 37.087c-5.062 0-6.412-9.778-16.876-16.352-4.219-2.697-9.45-5.395-19.576-5.395-10.294.169-15.357 2.698-19.576 5.395-10.463 6.743-11.813 16.352-16.876 16.352-23.289-13.486-26.664-37.087-26.664-37.087s-1.35-3.035-2.532-3.878a12.193 12.193 0 0 0-2.7-1.517s-.844 20.904 21.939 48.382c2.531 3.035 5.4 5.901 8.438 8.598 2.025 1.686 4.05 3.371 6.075 4.889 4.388 3.203 8.776 8.766 12.826 10.957 6.413 3.54 12.995 4.889 19.07 4.889 6.076 0 12.657-1.349 19.07-4.889 4.05-2.191 8.438-7.754 12.826-10.957 2.025-1.518 4.219-3.203 6.075-4.889 3.038-2.529 5.738-5.395 8.438-8.598 22.783-27.478 22.108-48.382 22.108-48.382zm-48.772 46.528c-1.35 2.697-3.881 9.44-12.994 8.598-5.401-.506-2.869-5.901-2.869-5.901h-8.438s2.7 5.395-2.869 5.901c-9.113.842-11.645-5.901-12.995-8.598-1.519-3.203-1.687-12.306 4.05-15.678 3.544-2.191 6.245-3.203 15.864-3.203s12.488 1.012 15.863 3.203c6.076 3.372 5.907 12.475 4.388 15.678z" fill="#4A4A4A"/><path fill-rule="evenodd" clip-rule="evenodd" d="M393.955 25.725c.675-1.349-.169-3.034-.169-3.034 6.1 2.697 8.052 7.702 8.104 12 14.871 11.761 21.166 27.813 22.104 49.362.338 6.237.506 11.632 0 17.027l-5.569 4.214c1.181-5.394.506-11.8-.337-18.88-1.596-13.045-6.561-17.435-11.783-22.052-.852-.753-1.71-1.512-2.562-2.316-3.367-3.239-6.55-4.465-13.09-5.633-8.771 2.476-27.828 5.61-39.563 5.61-11.11 0-27.258-2.458-35.263-4.546-3.52.972-5.875 2.258-8.278 4.57-.798.73-1.601 1.424-2.4 2.114-5.281 4.563-10.332 8.927-11.944 22.252-.844 7.08-1.519 13.487-.338 18.881l-5.4-4.214c-.49-5.218-.348-10.436-.185-16.416l.016-.61c.953-21.893 7.435-38.112 22.822-49.923 1.607-3.663 3.945-6.746 6.88-8.238 6.076-3.034 13.501-5.731 27.171-8.26 6.591-1.22 12.594-.714 17.081-.336 4.818.406 7.889.664 8.064-1.518 6.75.843 12.488 5.057 12.488 5.057s-.169-2.023-1.687-3.034c3.881.506 11.307 4.72 13.838 7.923z" fill="#696969"/><path d="M834.588 173.906H643.383c-3.544 0-6.582 3.034-6.582 6.574v127.277c0 3.54 3.038 6.575 6.582 6.575h191.205c3.544 0 6.582-3.035 6.582-6.575V180.48c.169-3.708-2.869-6.574-6.582-6.574z" fill="gray"/><path opacity=".75" d="M739.07 261.567c9.693 0 17.551-7.85 17.551-17.533 0-9.682-7.858-17.532-17.551-17.532-9.693 0-17.551 7.85-17.551 17.532 0 9.683 7.858 17.533 17.551 17.533z" fill="#fff"/><path d="M452.852 173.906H261.478c-3.544 0-6.582 3.034-6.582 6.574v127.277c0 3.54 3.038 6.575 6.582 6.575h191.205c3.544 0 6.582-3.035 6.582-6.575V180.48c.169-3.708-2.869-6.574-6.413-6.574z" fill="gray"/><path opacity=".75" d="M356.996 261.567c9.693 0 17.551-7.85 17.551-17.533 0-9.682-7.858-17.532-17.551-17.532-9.693 0-17.551 7.85-17.551 17.532 0 9.683 7.858 17.533 17.551 17.533z" fill="#fff"/><path d="M1202.82 173.906h-191.2c-3.55 0-6.58 3.034-6.58 6.574v127.277c0 3.54 3.03 6.575 6.58 6.575h191.2c3.55 0 6.59-3.035 6.59-6.575V180.48c0-3.708-2.87-6.574-6.59-6.574z" fill="gray"/><path opacity=".75" d="M1107.14 261.567c9.69 0 17.55-7.85 17.55-17.533 0-9.682-7.86-17.532-17.55-17.532-9.7 0-17.55 7.85-17.55 17.532 0 9.683 7.85 17.533 17.55 17.533z" fill="#fff"/><path d="M904.455 363.388h100.915l-55.012-89.009h-89.78l43.877 89.009z" fill="#fff"/><path opacity=".1" d="M943.945 381.258h105.305l-61.596-88.841H897.03l46.915 88.841z" fill="#000"/><path d="M945.127 380.246h105.133l-61.424-89.178h-90.794l47.085 89.178z" fill="#fff"/><path d="M548.877 233.077c-14.682 0-26.495 11.8-26.495 26.467 0 14.666 11.813 26.466 26.495 26.466s26.495-11.8 26.495-26.466c0-14.667-11.813-26.467-26.495-26.467zm0 47.033c-11.982 0-20.589-8.597-20.589-20.566s8.607-20.567 20.589-20.567 20.589 8.598 20.589 20.567-8.438 20.566-20.589 20.566z" fill="url(#a)"/><path d="M515.125 224.479v12.306h45.734v-12.306s-9.62-2.697-22.952-2.697c-12.319.169-22.782 2.697-22.782 2.697z" fill="url(#b)"/><path d="M515.125 224.479v12.306h45.734v-12.306s-9.62-2.697-22.952-2.697c-12.319.169-22.782 2.697-22.782 2.697z" fill="url(#c)"/><path d="M515.125 224.479s8.606 2.529 22.951 2.529c13.501 0 22.952-2.529 22.952-2.529v69.286s-7.088 3.877-22.952 3.877c-16.201 0-22.951-3.877-22.951-3.877v-69.286z" fill="url(#d)"/><path d="M527.95 219.085h-1.856c-1.856-12.138 2.532-24.107.844-36.076h.337c2.363 11.969-1.687 23.938.675 36.076zM538.92 219.085h-1.856c-1.857-12.138 2.531-24.107.843-36.076h.338c2.194 11.969-1.688 23.938.675 36.076zM549.721 219.085h-1.857c-1.856-12.138 2.532-24.107.844-36.076h.338c2.362 11.969-1.688 23.938.675 36.076z" fill="#fff"/><path d="M1243.33 294.777s17.21-3.878 45.56-3.878c30.88 0 46.07 3.878 46.07 3.878l-1.68 22.252s-25.32 5.057-44.39 5.057c-22.95 0-43.88-5.057-43.88-5.057l-1.68-22.252z" fill="#727272"/><path d="M1259.36 301.857c-7.76-45.179 15.52-83.615 3.37-174.142 23.29 33.379 18.74 167.062 8.44 178.356M1310.83 301.52c8.44-48.551-16.71-90.19-3.37-187.628-24.98 35.907-20.26 179.873-9.12 191.842" fill="#666"/><path d="M1306.44 300.508c-2.53-20.566 49.11-88.504 28.52-140.089 24.64 34.896-20.59 129.806-16.2 145.484l-12.32-5.395z" fill="#666"/><path d="M1331.08 317.029h-84.04l19.41 68.106s11.3 3.203 22.27 3.203c11.48 0 22.95-3.203 22.95-3.203l19.41-68.106z" fill="#818181"/><path d="M1243.33 294.777s17.21 5.057 45.56 5.057c30.88 0 46.07-5.057 46.07-5.057l-1.68 22.252s-25.32 5.057-44.39 5.057c-22.95 0-43.88-5.057-43.88-5.057l-1.68-22.252z" fill="#818181"/><path opacity=".3" d="m1247.21 317.535 1.01 3.54s20.42 3.54 40.67 3.54c21.43 0 41.18-3.54 41.18-3.54l1.01-3.54s-22.78 3.877-42.19 3.877c-17.21 0-41.68-3.877-41.68-3.877z" fill="#000"/><path opacity=".2" d="M61.16 344.339c-.17 1.011.337 1.854.843 2.697.675 1.18 1.856 2.023 3.375 2.529l38.815 13.318c0 6.574 1.856 11.294 5.4 17.532.507 1.011 1.182 1.854 1.688 2.697 7.088 10.789 18.395 19.049 32.064 23.938 13.67 4.72 27.846 5.058 39.997 1.012 12.15-4.046 20.926-12.138 24.47-22.59 1.181-3.371 1.856-7.08 1.856-5.732V363.22l-.168-.337c.168-7.587-2.363-15.341-7.088-22.59-7.088-10.789-18.395-19.218-32.065-23.938-15.188-5.226-26.327-3.709-38.309 1.348-6.75 2.698-12.319 6.912-16.538 12.307l-41.009-14.835a7.837 7.837 0 0 0-4.388-.169c-1.35.337-2.362 1.349-2.531 2.529L63.69 328.83c-.168.337-.168.674-.168 1.011l-2.363 14.498z" fill="#000"/><path d="M63.353 332.201c0-.337 0-.674.169-1.011l3.881-11.295c.338-1.18 1.182-2.023 2.532-2.529 1.35-.506 2.869-.337 4.387.169l39.322 13.992c4.05-5.395 9.788-9.441 16.538-12.306 12.151-4.889 27.677-5.226 42.697 0 13.669 4.72 24.976 13.149 32.064 23.938 4.894 7.249 7.257 15.172 7.088 22.589 0 0 0 .169.169.337l-.675 13.15c0 .674-.338 2.36-.844 3.54-3.544 10.452-12.657 17.363-24.808 21.409-12.319 4.046-26.327 3.709-39.996-1.011-13.67-4.889-24.977-13.149-32.065-23.938-.506-1.012-1.181-1.855-1.687-2.698-3.544-6.237-5.401-10.957-5.401-17.532l-39.32-13.992c-1.52-.506-2.7-1.517-3.376-2.529-.506-1.011-1.013-1.854-.844-2.697l.169-7.586z" fill="#A0A0A0"/><path d="M130.182 319.389c-6.75 2.697-12.319 6.912-16.538 12.306l-39.322-13.992a7.846 7.846 0 0 0-4.387-.168c-1.35.337-2.363 1.348-2.532 2.528l-3.881 11.295c-.338 1.18-.169 2.529.506 3.54.675 1.18 1.856 2.023 3.375 2.529l39.321 13.992c0 6.575 1.857 13.149 5.57 19.724l17.888-51.754z" fill="#C1C1C1"/><path d="M113.981 373.84c7.088 10.789 18.395 19.049 32.065 23.938 13.669 4.72 27.845 5.058 39.996 1.012 12.319-4.046 20.926-12.138 24.47-22.59 3.544-10.452 1.688-22.084-5.4-32.873-7.088-10.789-18.395-19.218-32.065-23.938-15.188-5.226-30.883-5.057-43.034-.169l-17.888 51.586c.506.843 1.35 2.191 1.856 3.034z" fill="#5C5C5C"/><path d="M181.654 378.56c7.27 0 13.163-5.887 13.163-13.149s-5.893-13.149-13.163-13.149c-7.27 0-13.163 5.887-13.163 13.149s5.893 13.149 13.163 13.149z" fill="#fff"/><path d="M171.36 363.388c0-2.697 1.012-5.226 2.531-7.249-2.531 2.192-4.388 5.563-4.388 9.272 0 6.743 5.57 12.138 12.151 12.138 4.05 0 7.594-1.854 9.788-4.889-2.025 1.854-4.894 2.866-7.763 2.866-6.919 0-12.319-5.563-12.319-12.138z" fill="#E6E6E6"/><path d="M417.413 236.954c-1.182 0-2.532-.337-3.882-.843-2.363-1.011-3.881-2.023-4.725-3.371-1.519-.843-2.363-1.855-2.869-2.698-.338.169-.506.506-1.013.675-.844.506-1.856.674-3.037.674-1.182 0-2.363-.337-3.713-.843-3.207-1.011-4.557-2.697-5.232-3.877-2.025-1.349-2.7-3.035-2.869-4.215v-2.191l-.843 1.686c-.338.843-1.013 1.685-1.857 2.023-.506.337-1.181.505-2.025.505-.675 0-1.35-.168-2.194-.505-1.012-.506-2.362-1.18-3.037-2.529-.844-1.349-.338-2.697 0-3.372l.168-.337c.338-.843 5.232-14.16 5.907-16.015 0-.337.169-.674.337-1.011.507-1.012 1.35-3.372 3.882-4.889 1.35-.843 3.206-1.349 5.231-1.349.844 0 1.857 0 2.869.169.844-.337 2.701-1.012 4.219-1.012.507 0 1.182 0 1.519.169.844.337 1.519.674 2.025 1.18.338 0 .844 0 1.182.169 2.025.505 3.544 1.685 4.387 3.708l7.088 2.529c2.701 1.18 4.894 2.529 6.582 4.215.844 1.011 1.519 1.854 2.025 3.034l2.194.843a6.783 6.783 0 0 1 2.531-.506c.507 0 1.013 0 1.519.169h.338c1.181.674 1.687 1.517 1.687 2.191v.506c.338.506.675 1.011.844 1.686 0 .674-.169 1.18-.506 1.685-.338.675-1.013 1.181-1.856 1.349l-.169.169a2.8 2.8 0 0 1-2.025.843c-.844 0-1.519-.338-1.857-.506a3.689 3.689 0 0 1-1.35-.843c-.337 2.191-1.35 4.552-2.7 6.406l-3.881 10.789c-.169.843-1.013 2.192-2.363 2.866-.675.506-1.688.674-2.531.674z" fill="#BDBDBD"/><path d="M402.899 195.652c.338 0 .675 0 1.013.169 1.181.337 1.687 1.011 1.856 1.349.337 0 .675-.169.844-.169.168 0 .506 0 .675.169 1.181.337 2.7 1.011 3.375 3.371l7.932 2.697c2.362 1.012 4.219 2.192 5.738 3.709.843 1.012 1.518 2.023 2.025 3.203l3.712 1.349c.507-.169 1.519-.675 2.532-.675.337 0 .506 0 .844.169.506.337.675.506.675.843.168.337 0 .506-.169.843.506.337 1.35 1.011.844 1.348-.169.506-.844.675-1.182.675h-.337c.169.168 0 .337-.169.674-.169.169-.337.169-.675.169-.337 0-.675-.169-.844-.169-1.35-.506-1.856-1.854-1.856-2.36l-2.363-.843c.675 3.54-.337 7.08-2.7 9.609v.337l-3.881 10.621c0 .168-.338 1.18-1.35 1.685a6.295 6.295 0 0 1-2.026.338 8.407 8.407 0 0 1-3.206-.675c-2.025-.843-3.544-1.854-4.05-3.034-2.025-1.012-2.701-2.192-2.869-3.203-.169-1.012.168-1.686.168-1.854l1.182-3.541c-.506-.337-1.182-.505-1.35-.674l-1.857 4.889c0 .168-.337 1.18-1.518 1.854-.507.337-1.182.506-2.026.506-.843 0-1.856-.169-3.037-.674-2.194-.675-3.544-1.855-4.219-3.035 0-.168-.169-.337-.169-.337-1.856-1.011-2.363-2.191-2.531-3.203v-.674c-.169-1.012.337-1.686.337-1.855l2.7-7.249c-.506-.168-1.012-.337-1.519-.337h-.506c-.844.169-1.519.843-2.025 1.855l-3.375 7.08c0 .169-.338.674-.844 1.011-.338.169-.675.338-1.181.338-.507 0-.844-.169-1.519-.338-1.013-.337-1.688-1.011-1.857-1.517-.337-.674-.168-1.348.169-1.854v.168c.338-1.011 6.076-16.352 6.076-16.52 0-.169 0-.337.168-.337.338-1.012 1.182-2.866 3.207-4.215 1.181-.674 2.531-1.011 4.219-1.011 1.012 0 2.025.168 3.037.337.338-.169 2.363-1.012 3.882-1.012zm0-4.046c-1.688 0-3.375.506-4.557 1.012-.843-.169-1.687-.169-2.531-.169-2.363 0-4.557.506-6.244 1.518-2.869 1.685-4.05 4.383-4.557 5.563-.168.337-.337.842-.506 1.348-.844 2.36-5.4 14.835-5.907 15.847l-.337.674v.169c-.675 2.023-.169 3.54.337 4.72.675 1.348 2.026 2.528 3.882 3.203h.169c1.012.337 2.025.506 2.869.506a5.836 5.836 0 0 0 3.037-.843c.169 0 .338-.169.507-.338.506 1.012 1.35 1.855 2.362 2.698.844 1.517 2.7 3.371 6.076 4.551 1.518.506 2.869.843 4.219.843 1.181 0 2.362-.168 3.375-.674.506.506 1.181 1.18 2.025 1.517 1.181 1.517 2.869 2.697 5.4 3.709 1.688.674 3.207.843 4.557.843 1.35 0 2.531-.169 3.544-.675 1.856-1.011 3.038-2.697 3.375-4.045l3.713-10.284c1.012-1.348 1.687-2.866 2.194-4.383.506.169 1.181.337 1.856.337 1.35 0 2.531-.505 3.375-1.348 1.013-.337 1.688-1.012 2.363-2.023.675-.843 1.012-1.855.844-3.035-.169-1.011-.507-1.685-1.013-2.36v-.168c-.169-1.012-.844-2.529-2.7-3.372l-.169-.169-.337-.168c-.675-.169-1.35-.337-2.025-.337-.844 0-1.688.168-2.532.337l-1.012-.337c-.507-1.012-1.182-1.855-1.857-2.529l-.169-.168-.168-.169c-1.857-1.854-4.219-3.372-7.088-4.552h-.338l-6.244-2.191c-1.181-2.023-2.869-3.372-5.232-4.046-.337-.169-.675-.169-.843-.169-.507-.505-1.35-.843-2.025-1.011-.169.337-.844.168-1.688.168z" fill="#fff"/><path d="m433.107 214.533-.337 1.012-.675.168-.844-.505-.675-.506-.506-.843.168-.169v-.168l.675.168 1.35.675.844.168zM432.77 212.679l-2.363-.506-.506.337.168.506 1.688.843 1.856.674h.507l.337-.337.169-.506-.506-.337-.507-.337-.843-.337zM433.445 211.499h-1.857l-.168.506 1.012.337.844.337h.338l.168-.506-.337-.674zM392.605 222.962s-1.013-.337-.338-2.023c.844-1.517 1.688-2.191 2.025-2.023.338.169.338 1.518.338 1.518-.844-.169-2.025 1.854-2.025 2.528z" fill="#A8A8A8"/><path d="M393.449 223.805s-.844-.337-.338-1.517c.675-1.18 1.35-1.854 1.519-1.686.169 0 .337.506.169 2.36-.675 1.18-1.35.843-1.35.843z" fill="#A8A8A8"/><path d="M392.605 223.299c-.169-.168-1.182-.674-.338-2.528.844-1.517 1.857-2.529 2.363-2.36.337.168.337 1.348.337 1.854v.169h-.168c-.338 0-.507.168-.844.337-.675.674-1.182 1.854-1.182 2.191l-.168.337zm-.169-2.36c-.338 1.18-.169 1.686 0 1.855.169-.675.675-1.686 1.181-2.192.338-.337.675-.506 1.013-.506 0-.674 0-1.348-.169-1.348-.337-.169-1.181.506-2.025 2.191z" fill="#3B3B3B"/><path d="M393.449 223.974s-.338-.169-.507-.506a1.437 1.437 0 0 1 0-1.18c.675-1.349 1.519-1.854 1.857-1.854.168 0 .506.337.168 2.697-.675 1.348-1.518.843-1.518.843zm-.338-1.686c-.169.337-.169.843-.169 1.18.169.337.338.337.338.337v.169-.169s.675.337 1.181-.843c.338-1.854.169-2.36 0-2.36 0 0-.675.506-1.35 1.686z" fill="#3B3B3B"/><path d="M393.448 224.142s.844-.168 1.182-.674c-.338.843-.338 1.349-.338 1.349s-.506-.337-.844-.675zM395.642 226.334s-1.35-.674-.506-2.36c1.181-1.517 2.025-1.855 2.363-1.517-1.182 1.348-2.363 2.865-1.857 3.877z" fill="#A8A8A8"/><path d="M397.33 227.683s-1.181 0-1.519-1.18c0-.338 0-.675.169-1.181.506-2.022 2.7-3.877 3.206-3.034.338.843.338 1.18.338 1.686-.844.168-2.869 1.517-2.194 3.709z" fill="#A8A8A8"/><path d="M397.836 228.02s-1.181-.506-.337-2.023c1.012-1.517 1.856-1.855 1.856-1.686 0 .169.506.506.169 2.529-.338 1.517-1.688 1.18-1.688 1.18z" fill="#A8A8A8"/><path d="m395.811 226.84-.337-.169s-.507-.337-.844-1.011c-.169-.338-.169-1.012.169-1.686 1.012-1.517 2.025-1.855 2.7-1.855h.169l.168.169-.168.169c-1.519 1.517-2.194 3.034-1.857 4.045v.338zm-.844-2.698c-.337.506-.337 1.012-.168 1.349.168.337.337.506.337.674-.169-1.348 1.182-2.866 1.857-3.708-.169-.169-1.013.168-2.026 1.685z" fill="#3B3B3B"/><path d="M396.486 227.851c-.506-.168-1.35-.674-1.181-2.529.337-1.517 1.687-3.034 2.7-3.54.338-.168.506-.168.675-.168.169 0 .338.168.338.337.337.843.337 1.18.337 1.517v.506h-.169c-.675.337-2.7 1.854-2.025 3.709v.168h-.169c.338.169 0 .169-.506 0zm-.675-2.36c-.337 1.349.338 1.854.844 2.192.169 0 .337.168.337.168-.337-1.854 1.351-3.54 2.194-3.877v-.169c0-.337 0-.674-.337-1.348 0-.169-.169-.169-.169-.169-.169 0-.337 0-.506.169-.844.168-1.857 1.517-2.363 3.034z" fill="#3B3B3B"/><path d="M397.836 228.357s-.337-.337-.675-.843c-.169-.337-.169-1.012.338-1.517 1.012-1.686 1.856-1.855 2.194-1.855.337.169.675.843.337 2.698-.169.674-.337 1.18-.844 1.348-.843.169-1.35.169-1.35.169zm-.168-2.36c-.338.505-.338 1.011-.338 1.348.169.338.338.506.506.675 0 0 .338.168.844-.169.338-.168.506-.506.675-1.18.338-1.854 0-2.529-.169-2.529.169.169-.506.338-1.518 1.855z" fill="#3B3B3B"/><path d="M407.962 228.694s-1.013-.337-.338-2.023c.844-1.517 1.688-2.191 2.026-2.023.337.169.337 1.517.337 1.517-1.013-.337-2.194 1.855-2.025 2.529z" fill="#8E8E8E"/><path d="M407.962 229.031c-.169-.168-1.181-.674-.337-2.529.843-1.517 1.856-2.528 2.362-2.36.338.169.338 1.349.338 1.855v.168h-.169c-.338 0-.506.169-.844.337-.675.675-1.181 1.855-1.181 2.192l-.169.337zm-.337-2.36c-.338 1.18-.169 1.686 0 1.854.168-.674.675-1.685 1.181-2.191.337-.337.675-.506 1.012-.506 0-.674 0-1.349-.168-1.349-.169-.168-1.182.506-2.025 2.192z" fill="#3B3B3B"/><path d="M408.637 229.705s-1.013-.337-.338-1.685c.675-1.349 1.519-1.855 1.688-1.855.169.169.338.675.169 2.698-.675 1.18-1.519.842-1.519.842z" fill="#8E8E8E"/><path d="M408.637 229.874s-.338-.169-.506-.506c-.169-.337-.169-.843.168-1.348.675-1.349 1.519-2.023 1.857-1.855.169 0 .675.337.169 2.698-.676 1.18-1.688 1.011-1.688 1.011zm-.338-1.854c-.168.337-.168.843-.168 1.18.168.337.337.337.337.337v.168-.168s.844.337 1.182-.843c.337-2.023 0-2.529 0-2.529s-.676.675-1.351 1.855z" fill="#3B3B3B"/><path d="M408.468 229.874s1.181 0 1.519-.843c-.338 1.18-.169 1.686-.169 1.686s-.844-.506-1.35-.843z" fill="#8E8E8E"/><path d="M411 231.728s-1.351-.674-.507-2.36c1.013-1.517 1.857-1.854 2.363-1.685-1.35 1.517-2.363 3.034-1.856 4.045z" fill="#A8A8A8"/><path d="m411.337 232.234-.337-.168s-.675-.338-.844-1.012c-.169-.337-.169-1.011.169-1.686 1.012-1.685 1.856-2.023 2.531-1.854h.169l.168.169-.168.337c-1.35 1.685-2.025 3.203-1.688 4.214zm-.844-2.36c-.337.506-.337 1.012-.168 1.349.168.337.337.505.506.674-.338-1.18.844-2.866 1.687-3.877-.506-.169-1.181.337-2.025 1.854z" fill="#3B3B3B"/><path d="M412.687 233.077s-1.856 0-1.35-2.192c.506-2.022 2.7-3.877 3.206-3.034.338.843.338 1.18.338 1.686-.844.168-2.869 1.517-2.194 3.54z" fill="#A8A8A8"/><path d="M412.012 233.077c-.337-.169-1.181-.674-1.012-2.36.337-1.517 1.687-2.697 2.531-3.203.338-.169.506-.169.675-.169.169 0 .338.169.338.338.337.674.337 1.18.337 1.348v.506h-.169c-.675.337-2.531 1.686-1.856 3.54v.169h-.169c0-.169-.337-.169-.675-.169zm-.675-2.36c-.337 1.349.338 1.854.844 2.023.169 0 .337 0 .337.168-.337-1.854 1.351-3.203 2.026-3.54v-.168c0-.337 0-.675-.338-1.349 0-.169 0-.168-.169-.168-.168 0-.337-.001-.506.168-.675.337-1.856 1.517-2.194 2.866z" fill="#3B3B3B"/><path d="M413.362 233.414s-1.181-.506-.337-2.023c.844-1.517 1.687-1.854 1.856-1.854.169 0 .506.506.338 2.529-.507 1.854-1.857 1.348-1.857 1.348z" fill="#A8A8A8"/><path d="m413.362 233.751-.675-.674c-.168-.337-.168-1.011.169-1.517 1.013-1.686 1.856-2.023 2.025-1.855.338.169.675.843.338 2.698-.169.674-.338 1.18-.844 1.348-.506.169-1.013 0-1.013 0zm-.337-2.191c-.338.506-.338 1.011-.169 1.348.169.338.338.506.506.506 0 0 .338.169.844-.168.338-.169.506-.506.675-1.18.338-1.855 0-2.529-.169-2.529 0 0-.843.337-1.687 2.023zM394.967 212.51c-.168 0-.168-.168-.168-.337 0-.168.168-.337.337-.337 0 0 .675 0 1.519-.337 1.181-.506 2.025-1.854 2.7-3.372 0-.168.169-.168.338-.168.168 0 .168.168.168.337-.843 2.191-2.025 3.203-2.869 3.54-1.181.674-1.856.674-2.025.674z" fill="#3B3B3B"/><path d="M399.355 208.464c-.675-.337-1.181-1.18-1.181-1.18 0-.168 0-.337.169-.337.168 0 .337 0 .337.169 0 0 .338.674.844.843.337.168.844 0 1.181-.337.169-.169.338-.169.338 0 .169.168.169.337 0 .337-.506.506-1.013.674-1.688.505.169 0 0 0 0 0zM397.33 201.216s.169.168.338 0c.168-.169-.169-.338-.169-.338s-2.363-1.854-4.557-.674c-.337.337 0 .674 0 .674s.169.338.507 0c.675-.337 2.362-.842 3.881.338zM394.968 203.239s1.856-.169 1.687 1.348c-.169 1.686-3.375 1.686-3.206 0-.675-1.686 1.35-2.697 3.206-2.023 0 .337-1.687.675-1.687.675z" fill="#3B3B3B"/><path d="M396.318 205.093c-.169.506-.844.843-1.519.674-.675-.168-1.182-.506-1.013-1.348.338-.843 1.181-1.18 1.857-.843.506.168 1.012.843.675 1.517z" fill="#AAA"/><path d="M396.318 205.093c-.169.506-.844.843-1.519.506-.507-.337-1.013-.675-.844-1.18.169-.506 1.013-1.012 1.519-.843.675.337 1.012.843.844 1.517z" fill="#FCFCFC"/><path d="M396.149 205.261s.337-1.011-.338-1.18c-.506-.337-.843.169-.843.169l.337.337-.506.169s.169 1.011 1.012.843l.338-.338z" fill="#3B3B3B"/><path d="M395.811 205.093a.337.337 0 1 0 .001-.675.337.337 0 0 0-.001.675z" fill="#FCFCFC"/><path d="M409.818 201.721v1.686l6.413 2.023c6.075 1.854 9.619 5.563 10.463 9.946.338-3.877-2.531-8.934-8.1-10.957l-8.438-3.203-.338.505z" fill="url(#e)"/><path d="m403.574 211.836-1.181 1.854s-.506 1.012.337 1.18c.844.338 1.182.338 1.182.338s.675.337 1.181-.506l.675-1.18 1.181.337s1.857 1.011 3.882-.337c-.675.843-.675 1.517.169 1.854.843.337 1.012.337 1.012.337s.844.338 1.35-.843l1.857-2.865 1.181.337s.337.168 0 .337l-1.519 2.529s-.675 1.011.338 1.348c1.012.337 1.181.337 1.181.337s.337.338.675 0l-.675 1.18s-.675.843.337 1.181l1.182.337s.675.337 1.181-.675l.506-1.011.844.337c3.544 1.349 5.232-.843 5.738-2.192 0 0 1.181-2.528-2.194-3.708l-2.531-1.012s-.844-.337-1.35.337l-.338.675s.675-1.517-2.025-2.698l-.844-.337.506-1.011s.676-.843-.337-1.18l-1.013-.337s-.675-.338-1.181.337c-.337.843-1.688 2.697-1.688 2.697s.507-1.854-2.7-2.866c-1.35.506-1.181 1.855-1.181 1.855l.506.337s.844.337.338 1.011c-.338.675-.675 1.18-2.532.506l.169-.337c-.844 1.011-3.713 1.011-4.219 1.517z" fill="#fff"/><path d="m403.068 214.533 1.012.337s.338.169.507-.337c.337-.337.675-1.18.675-1.18s.168-.337.506-.168c1.181.337 3.713 1.685 5.569-.843.338-.675 1.856-2.697-1.856-3.878-.844.338-.675 1.012-.675 1.012s1.856.506 1.181 1.854c-.844 1.18-1.35 1.518-2.363 1.18-1.012-.337-1.687-.337-1.181-1.011-1.35 0-1.856.168-1.856.168l-1.182 2.023c-.506.169-.843.843-.337.843zM414.375 208.802s.169-.506.506-.338c.338.169 1.181.338 1.181.338s.338.168-.168.674c-.507.506-.507.843-.507.843s-.337.337.169.505c.338.169 1.181.338 1.181.338 1.351.505 2.026 1.18 1.182 2.697l-1.688 2.697s-.169.337-.506.337c-.338-.168-1.013-.337-1.013-.337s-.337-.168-.168-.337c.168-.169 1.687-2.697 1.687-2.697s.675-.843-.337-1.18l-1.013-.337s-.506-.338-.844.337l-1.856 3.034s-.169.337-.675.337a7.037 7.037 0 0 1-.844-.337s-.337-.168-.169-.506l3.882-6.068zM420.45 212.679s-.337-.337-.675.337l-3.544 5.9s-.337.337 0 .506c.338.169 1.013.337 1.013.337s.337.169.506-.337c.169-.337.675-1.18.675-1.18s.169-.337.675-.337 1.013.337 1.013.337c2.194.843 4.05 0 4.894-1.854.675-1.855-.844-2.866-1.688-3.203-1.181.168-2.869-.506-2.869-.506z" fill="#3B3B3B"/><path d="m421.294 215.039-1.181 1.854.506.169c1.519.674 2.7-1.349 1.519-1.686l-.844-.337z" fill="#fff"/><path d="m383.154 218.748 6.244-15.847c1.182-2.528 3.038-5.9 9.957-4.214-.337.506.338.674.338.674 1.856-.337 6.919-2.529 9.45 0-.844-1.854-3.206-2.023-3.206-2.023l-5.401.675-.337-.338c-2.531-1.011-8.607-1.854-10.801 2.698-1.856 3.708-6.75 17.363-6.244 18.375z" fill="url(#f)"/><path d="M435.132 214.365c.338-.843-.506-1.349-1.012-1.686.168-.337.337-.506.168-.843 0-.337-.168-.506-.675-.843-1.181-.337-2.7.337-3.375.506l-3.712-1.349c-.507-1.18-1.182-2.191-2.026-3.203-1.518-1.517-3.544-2.697-5.737-3.708l-7.932-2.698c-.675-2.36-2.025-3.034-3.375-3.371-.338-.169-.844-.169-1.519 0-.169-.338-.675-1.012-1.857-1.349-1.687-.506-4.387.674-5.062 1.011-2.869-.505-5.401-.337-7.257.675-2.025 1.18-2.7 3.203-3.207 4.214-.168.169-.168.337-.168.337 0 .169-5.738 15.51-6.076 16.521v.169c-.337.505-.506 1.18-.169 1.854.338.506 1.013 1.18 1.857 1.517 1.181.337 1.856.337 2.7 0 .506-.337.844-.843.844-1.011l3.375-7.08c.506-1.181 1.181-1.855 2.025-1.855.675-.168 1.35 0 2.025.337l-2.7 7.249c0 .169-.337 1.012-.337 2.023.168 1.18.506 2.529 2.531 3.54 0 .169.169.337.169.337.506 1.181 1.856 2.361 4.219 3.035 2.025.843 3.881.843 5.063.168 1.181-.674 1.518-1.854 1.518-1.854l1.857-4.889c.337.169.844.337 1.35.675l-1.181 3.54c0 .168-.338.843-.169 1.854.169 1.012.844 2.192 2.869 3.203.506 1.18 1.856 2.192 4.05 3.035s3.881.842 5.063.337c1.181-.506 1.35-1.517 1.35-1.686l3.881-10.62v-.338c2.194-2.697 3.376-6.237 2.701-9.609l2.362.843c.169.506.506 1.855 1.857 2.36.337.169 1.181.338 1.518 0 .169-.337.338-.505.169-.674.844 0 1.688 0 2.025-.674zm-1.687-2.36c0 .168 0 .337-.169.337-.338-.169-1.181-.337-1.856-.506.506-.169 1.181-.337 1.687 0 .169 0 .338.169.338.169zm-29.871-15.341c.675.337 1.181.506 1.181.674-1.012.169-2.025.337-2.869.337-.675-.337-1.35-.337-1.856-.505 1.181-.506 2.7-1.012 3.544-.506zm-10.632 23.601 2.7-7.249c.844.506 1.688 1.18 2.194 1.517-.844 2.192-3.037 8.261-3.206 8.766-.169.338-.338.675-.338 1.18-2.362-1.517-1.35-4.045-1.35-4.214zm15.189 6.575 1.181-3.541c.675.338 1.519.338 2.531.675l-1.856 5.057c0 .169-.338.674-.169 1.349-2.531-1.349-1.856-3.372-1.687-3.54zm15.526-4.889c-.169.168-.169.337 0 .506l-3.882 10.451s-.169.843-1.181 1.18c-1.013.506-2.532.338-4.388-.337-1.856-.674-3.206-1.685-3.713-2.697-.337-1.011-.169-1.686-.169-1.686l2.363-6.237c.169-.169 0-.337-.337-.506-.338-.168-.338 0-.507.337l-.168.337c-2.701-.505-4.051-1.348-4.557-1.685l.169-.506c.169-.169 0-.337-.338-.506-.168-.168-.337 0-.506.337l-2.363 6.238s-.168 1.011-1.181 1.517c-1.013.506-2.531.506-4.388-.169-1.856-.674-3.206-1.685-3.712-2.697-.338-1.011-.169-1.686 0-2.023.168-.506 3.544-9.609 3.544-9.609l-.676-.337v.169c-1.181-1.181-3.544-2.698-5.4-2.192-1.181.337-1.856 1.18-2.7 2.36l-3.375 7.08v.169s-.169.337-.507.506c-.337.337-1.181.168-1.856-.169-.844-.337-1.35-.674-1.519-1.18-.168-.337 0-1.011.169-1.348 0 0 0-.169.169-.169.337-1.012 5.738-15.847 5.906-16.521 0-.168.169-.337.169-.337.675-1.854 2.363-5.9 9.62-4.383.506.169 1.181.337 1.856.506-.169.168-.169.168-.169.337 0 .168.338.337.338.337.337 0 .506-.169.843-.169.169 0 .338 0 .338-.168 1.688-.337 4.05-.674 4.725-.506 1.182.337 2.532.843 2.869 3.203.338 2.192-1.012 8.26-3.544 9.778-1.181.337-1.856.337-2.7.337-1.181-.169-2.194-.337-2.7 1.348-.169.169 0 .338.337.506.169.169.338 0 .507-.337.337-1.18.843-1.18 1.856-1.011.844.168 1.856.337 3.206-.338 1.857-1.011 2.869-3.54 3.376-5.057.506-1.854.843-3.877.675-5.057l7.425 2.697c4.219 1.686 7.257 4.383 8.101 8.092 1.519 3.203.506 6.911-2.025 9.609zm8.269-6.743c-.675-.338-1.182-.843-1.35-1.349.168.169.337.169.506.337.506.337 1.181.506 1.35.674.169.169.169.338.169.506 0-.168-.169-.168-.675-.168zm1.181-1.012c-.169 0-.844-.337-1.519-.674-.843-.337-1.181-.675-1.35-.843 1.182-.169 2.7.337 3.375.674.338.337 1.013.506.844.843-.169.169-.675.169-1.35 0z" fill="#3B3B3B"/><path d="M429.226 212.173s-.169.169-.169.337v.169l-2.194-.843c0-.169-.169-.337-.169-.337l2.532.674z" fill="#747474"/><path d="m299.28 206.273-20.589 14.329 11.982 28.996 22.277 5.226 16.538-16.184-4.725-31.018-25.483-1.349z" fill="#fff"/><path d="m322.738 210.15-22.783-1.348 11.982 43.662 14.851-14.498-4.05-27.816z" fill="#3E3E3E"/><path d="m281.56 221.782 10.463 25.961 19.745 4.721-11.982-43.662-18.226 12.98z" fill="#555"/><path d="m311.937 230.548-5.063 4.215-6.075 1.685-.844 7.924-5.231 1.517 5.4-35.402 11.813 20.061zm-.675-1.348-8.1-8.767-1.35 11.295 4.219-1.18 5.231-1.348z" fill="#F2F2F2"/><path d="m300.293 210.487 2.869 10.115 7.594 8.766-4.894 1.349 1.181 4.214 6.582-1.854 5.063 6.406 5.062-1.18-23.457-27.816z" fill="#B3B3B3"/><path d="m437.157 265.107 3.376-.674s-4.22 9.609-4.557 10.452c-.169.337-.338.505-.338.842-.168.843-.168 2.529-.168 2.529l-3.038.674s.169-1.854-.169-2.697c-.168-.843-.844-1.517-1.181-2.191a86.71 86.71 0 0 0-1.181-2.192l3.037-.674.844 1.686 3.375-7.755z" fill="#fff"/><path d="M431.251 268.31c.675.337 1.519 2.191 1.519 2.191s-3.207.843-4.894 1.18c-.338.169-1.519.338-1.519.338v8.26l-2.7.674s-.338-8.934-.169-10.452c0-.505.844-.505 2.025-1.011.675-.169 1.519-.337 2.025-.337 1.35-.674 2.869-1.18 3.713-.843zM421.463 272.356c.675 1.18.675 4.214.675 4.214s-3.544.675-5.401 1.18c-.506.169-1.35.338-1.35.506-.168.337.338 1.012.675 1.18.338.337 1.182.169 1.182.169 1.687-.169 4.894-1.18 4.894-1.18v2.697s-4.557 1.18-6.919 1.18c-.338 0-1.013-.169-1.182-.337-.169 0-.169-.169-.337-.337-.169 0-.338-.337-.338-.337-.844-1.18-.844-4.215-.506-5.732 0-.169 0-.337.169-.506 0-.337.168-.506.168-.674 0-.169.169-.169.169-.337 0-.169.169-.338.169-.338.169-.337.337-.505.506-.842.844-1.012 2.363-1.855 4.557-2.192.844-.169 2.025-.169 2.7.506-.338.506 0 1.011.169 1.18zm-2.194 2.697s0-.506-.507-1.011c-.337-.337-.843-.338-1.687-.338-2.363.338-1.856 2.192-1.856 2.192l4.05-.843zM408.299 273.199l2.701-.675s.168 7.418.168 11.127a25.286 25.286 0 0 1-3.037.674c-2.194.506-4.051 1.18-5.063-.169-1.182-1.348-1.013-4.046-1.013-5.731v-3.709l2.7-.674s.169 4.046.169 5.9c0 .674 0 1.348.338 1.854.337.337.675.337 1.687.169.338 0 1.35-.337 1.35-.337v-8.429zM399.693 276.402c.843 2.191.168 4.889-.169 7.249.844-.169 1.519-.337 1.688-.337.168 0-.001 2.697-.169 2.697-.675.168-2.7.674-3.713.843-2.869.674-5.738 1.517-7.425.337-.675-.337-1.351-1.349-1.688-2.023a14.009 14.009 0 0 1-.506-3.709c0-1.18.168-2.023.337-3.034.675-2.529 2.532-4.552 6.244-5.058.675-.168 1.857 0 2.532.338l.337.168c1.013.337 2.025 1.517 2.532 2.529zm-2.869 4.889c0-1.18.337-2.192 0-3.203-.338-1.012-1.182-1.686-1.857-1.686-1.687-.169-3.037 1.011-3.544 1.686-.506 1.011-.506 1.854-.506 3.371 0 1.012.169 2.023.675 2.697 1.013 1.181 2.869.338 5.063 0 .169-1.011.169-1.854.169-2.865zM386.361 278.256v2.697c-1.013.337-1.857.338-3.038.675v-2.698c1.181-.337 1.856-.505 3.038-.674zM383.492 282.302c1.012-.337 1.856-.337 2.869-.674.168 2.191.168 5.731 0 8.091 0 1.518 0 2.698-.844 3.541-.169.168-.169 0-.169.168-.169.337-1.012.506-1.35.843-.675.337-1.688.337-2.531.506 0-1.012.168-2.023.168-2.866 2.363-.337 1.857-2.36 1.857-4.552-.169-1.18 0-4.383 0-5.057zM377.923 289.214c-.507 2.36-2.194 4.214-4.894 4.72-1.182.337-2.532.337-3.376.169-1.856-.338-3.544-1.349-4.725-2.698-1.519-1.854-2.531-4.889-.675-7.417l-.169.506v.337c-.337 5.563 5.569 8.766 10.463 7.249 1.35-.506 2.701-1.686 3.376-2.866zM376.741 282.808c-.168.505-1.012 1.517-1.519 1.854-1.856.843-3.375.337-4.219-.674-.168-.169-.337-.506-.337-.506-.338-.843-.675-2.023 0-2.866-.169.675 0 1.349.337 1.855.169.337.338.674.844 1.011.506.506.844.506 1.35.843.338.168.507.168.675.168.338-.337 1.35-.168 2.869-1.685z" fill="#fff"/><path d="M374.378 287.865c1.182-.337 2.363-1.18 3.038-2.023-.337 1.855-1.856 3.372-4.725 3.54-2.194.169-4.894-1.517-5.569-3.54-.507-1.517-.169-2.697.337-4.046-.168.674-.168 1.18-.168 1.517.843 3.372 4.387 5.226 7.087 4.552z" fill="#fff"/><path d="M386.361 281.628c.168 2.191.168 5.731 0 8.091 0 1.518 0 2.698-.844 3.541-.169.168-.169 0-.169.168-.169.337-1.012.506-1.35.843-.675.337-1.688.337-2.531.506 0-1.012.168-2.023.168-2.866 2.363-.337 1.857-2.36 1.857-4.552v-5.057c1.012-.169 1.856-.337 2.869-.674zM419.269 275.053l-4.219 1.012s-.338-1.855 1.856-2.192c.844-.169 1.182-.169 1.688.337.675.337.675.843.675.843zM364.253 284.494l.169-.506c-1.857 2.697-1.013 5.731.675 7.417 1.181 1.18 2.7 2.36 4.725 2.698.844.168 2.025.337 3.375-.169 2.7-.674 4.219-2.36 4.894-4.552v-.168c-.675 1.18-2.025 2.023-3.206 2.528-4.894 1.686-10.97-1.685-10.632-7.248zM432.77 270.502s-3.207.842-4.894 1.18c-.338.168-1.519.337-1.519.337v8.26l-2.7.674s-.338-8.934-.169-10.451c0-.506.844-.506 2.025-1.012.675-.168 1.519-.337 2.025-.337 1.35-.337 2.869-.843 3.544-.506.844-.168 1.688 1.855 1.688 1.855zM404.587 274.042s.168 4.046.168 5.9c0 .674 0 1.348.338 1.854.337.337.675.337 1.687.169.338 0 1.351-.337 1.351-.337l.168-8.429 2.701-.675s.168 7.418.168 11.127a25.286 25.286 0 0 1-3.037.674c-2.194.506-4.051 1.18-5.063-.169-1.182-1.348-1.013-4.046-1.013-5.731v-3.709l2.532-.674zM396.655 284.156c-2.194.338-4.05 1.18-5.063 0-.506-.674-.506-1.854-.675-2.697 0-1.348 0-2.36.506-3.371.338-.843 1.688-1.855 3.544-1.686.507 0 1.519.674 1.857 1.686.337.842.169 2.023 0 3.203 0 1.011 0 1.854-.169 2.865zM386.361 278.256v2.697c-1.013.337-1.857.338-3.038.675v-2.698c1.181-.337 1.856-.505 3.038-.674z" stroke="#fff" stroke-width="4.106" stroke-miterlimit="10" stroke-linejoin="round"/><path d="M421.969 276.739s-3.544.674-5.4 1.18c-.507.168-1.35.337-1.35.506-.169.337.337 1.011.675 1.18.337.337 1.181.168 1.181.168 1.688-.168 4.894-1.18 4.894-1.18v2.697s-4.557 1.18-6.919 1.18c-.338 0-1.013-.168-1.181-.337-.169 0-.169-.168-.338-.337-.169 0-.338-.337-.338-.337-.843-1.18-.843-4.214-.506-5.732 0-.168 0-.337.169-.505 0-.338.169-.506.169-.675 0-.168.168-.168.168-.337 0-.168.169-.337.169-.337.169-.337.338-.506.507-.843.843-1.011 2.362-1.854 4.556-2.191.844-.169 2.025-.169 2.7.505.169.169.338.506.506.843.338 1.517.338 4.552.338 4.552zM377.416 285.674c-.506 1.011-1.856 1.854-3.038 2.022-2.7.506-6.581-1.18-6.919-4.72 0-.337 0-.843.169-1.517-.675 1.349-1.012 2.529-.337 4.046.675 2.191 3.375 3.877 5.569 3.54 2.7.169 4.387-1.348 4.556-3.371z" stroke="#fff" stroke-width="4.106" stroke-miterlimit="10" stroke-linejoin="round"/><path d="M376.741 282.808c-1.35 1.517-2.531 1.348-3.038 1.348-.168 0-.337 0-.675-.168-.506-.169-.843-.337-1.35-.843-.337-.337-.675-.674-.843-1.012-.338-.337-.338-1.18-.338-1.854-.506.843-.338 2.192 0 2.866 0 .168.338.506.338.506.843.843 2.362 1.517 4.219.674.675.169 1.687-1.012 1.687-1.517zM440.364 264.433s-4.219 9.609-4.556 10.452c-.169.337-.338.505-.338.842-.169.843-.169 2.529-.169 2.529l-3.037.674s.168-1.854-.169-2.697c-.169-.843-.844-1.517-1.182-2.191a83.465 83.465 0 0 0-1.181-2.192l3.038-.674.844 1.686 3.206-7.586 3.544-.843zM399.524 283.651c.844-.169 1.519-.337 1.688-.337.168 0-.001 2.697-.169 2.697-.675.168-2.7.674-3.713.843-2.869.674-5.738 1.517-7.425.337-.675-.337-1.351-1.349-1.688-2.023a14.009 14.009 0 0 1-.506-3.709c0-1.18.168-2.023.337-3.034.675-2.529 2.532-4.552 6.244-5.058.675-.168 1.857 0 2.532.338l.337.168c1.013.337 2.025 1.517 2.532 2.697.843 2.023.168 4.721-.169 7.081z" stroke="#fff" stroke-width="4.106" stroke-miterlimit="10" stroke-linejoin="round"/><path d="m437.157 265.107 3.376-.674s-4.22 9.609-4.557 10.452c-.169.337-.338.505-.338.842-.168.843-.168 2.529-.168 2.529l-3.038.674s.169-1.854-.169-2.697c-.168-.843-.844-1.517-1.181-2.191a86.71 86.71 0 0 0-1.181-2.192l3.037-.674.844 1.686 3.375-7.755z" fill="#000"/><path d="M431.251 268.31c.675.337 1.519 2.191 1.519 2.191s-3.207.843-4.894 1.18c-.338.169-1.519.338-1.519.338v8.26l-2.7.674s-.338-8.934-.169-10.452c0-.505.844-.505 2.025-1.011.675-.169 1.519-.337 2.025-.337 1.35-.674 2.869-1.18 3.713-.843zM421.463 272.356c.675 1.18.675 4.214.675 4.214s-3.544.675-5.401 1.18c-.506.169-1.35.338-1.35.506-.168.337.338 1.012.675 1.18.338.337 1.182.169 1.182.169 1.687-.169 4.894-1.18 4.894-1.18v2.697s-4.557 1.18-6.919 1.18c-.338 0-1.013-.169-1.182-.337-.169 0-.169-.169-.337-.337-.169 0-.338-.337-.338-.337-.844-1.18-.844-4.215-.506-5.732 0-.169 0-.337.169-.506 0-.337.168-.506.168-.674 0-.169.169-.169.169-.337 0-.169.169-.338.169-.338.169-.337.337-.505.506-.842.844-1.012 2.363-1.855 4.557-2.192.844-.169 2.025-.169 2.7.506-.338.506 0 1.011.169 1.18zm-2.194 2.697s0-.506-.507-1.011c-.337-.337-.843-.338-1.687-.338-2.363.338-1.856 2.192-1.856 2.192l4.05-.843zM408.299 273.199l2.701-.675s.168 7.418.168 11.127a25.286 25.286 0 0 1-3.037.674c-2.194.506-4.051 1.18-5.063-.169-1.182-1.348-1.013-4.046-1.013-5.731v-3.709l2.7-.674s.169 4.046.169 5.9c0 .674 0 1.348.338 1.854.337.337.675.337 1.687.169.338 0 1.35-.337 1.35-.337v-8.429zM399.693 276.402c.843 2.191.168 4.889-.169 7.249.844-.169 1.519-.337 1.688-.337.168 0-.001 2.697-.169 2.697-.675.168-2.7.674-3.713.843-2.869.674-5.738 1.517-7.425.337-.675-.337-1.351-1.349-1.688-2.023a14.009 14.009 0 0 1-.506-3.709c0-1.18.168-2.023.337-3.034.675-2.529 2.532-4.552 6.244-5.058.675-.168 1.857 0 2.532.338l.337.168c1.013.337 2.025 1.517 2.532 2.529zm-2.869 4.889c0-1.18.337-2.192 0-3.203-.338-1.012-1.182-1.686-1.857-1.686-1.687-.169-3.037 1.011-3.544 1.686-.506 1.011-.506 1.854-.506 3.371 0 1.012.169 2.023.675 2.697 1.013 1.181 2.869.338 5.063 0 .169-1.011.169-1.854.169-2.865zM386.361 278.256v2.697c-1.013.337-1.857.338-3.038.675v-2.698c1.181-.337 1.856-.505 3.038-.674zM383.492 282.302c1.012-.337 1.856-.337 2.869-.674.168 2.191.168 5.731 0 8.091 0 1.518 0 2.698-.844 3.541-.169.168-.169 0-.169.168-.169.337-1.012.506-1.35.843-.675.337-1.688.337-2.531.506 0-1.012.168-2.023.168-2.866 2.363-.337 1.857-2.36 1.857-4.552-.169-1.18 0-4.383 0-5.057z" fill="#000"/><path d="M377.923 289.214c-.507 2.36-2.194 4.214-4.894 4.72-1.182.337-2.532.337-3.376.169-1.856-.338-3.544-1.349-4.725-2.698-1.519-1.854-2.531-4.889-.675-7.417l-.169.506v.337c-.337 5.563 5.569 8.766 10.463 7.249 1.35-.506 2.701-1.686 3.376-2.866zM376.741 282.808c-.168.505-1.012 1.517-1.519 1.854-1.856.843-3.375.337-4.219-.674-.168-.169-.337-.506-.337-.506-.338-.843-.675-2.023 0-2.866-.169.675 0 1.349.337 1.855.169.337.338.674.844 1.011.506.506.844.506 1.35.843.338.168.507.168.675.168.338-.337 1.35-.168 2.869-1.685z" fill="#535353"/><path d="M374.378 287.865c1.182-.337 2.363-1.18 3.038-2.023-.337 1.855-1.856 3.372-4.725 3.54-2.194.169-4.894-1.517-5.569-3.54-.507-1.517-.169-2.697.337-4.046-.168.674-.168 1.18-.168 1.517.843 3.372 4.387 5.226 7.087 4.552z" fill="#535353"/><path d="m1096.69 184.916-78.96 26.716 9.31 27.461 78.96-26.715-9.31-27.462z" fill="#fff"/><path d="m1026.13 215.039-.17-.506 8.1-2.697.17.506-.34.168c-.84.337-1.35.506-1.68.843-.34.337-.34.506-.34 1.012 0 .337.34 1.348.84 2.697l2.87 8.597c.34 1.349.85 2.192 1.01 2.698.34.337.51.674.85.843.34.168 1.01 0 1.69-.338l.5-.168.17.506-8.1 2.697-.17-.506.51-.169c.67-.337 1.18-.505 1.52-.842.33-.338.33-.675.33-1.18 0-.506-.33-1.349-.84-2.698l-2.87-8.597c-.34-1.349-.84-2.192-1.01-2.697-.34-.338-.34-.506-.84-.675-.34 0-1.02 0-1.86.337h-.34v.169z" fill="#000"/><path d="M1059.55 221.782h-.51l-8.61-4.046c-.17 0-.33-.168-.33-.168-.17-.169-.34-.337-.85-.506-.34-.337-.67-.506-1.18-.843-.34-.337-.67-.674-1.01-1.18-.34-.337-.51-.843-.68-1.349-.5-1.517-.33-2.865.17-4.045.51-1.181 1.69-1.855 3.21-2.529.34-.169.84-.337 1.35-.337.5 0 1.01 0 1.52.168.33.169.84.337 1.18.337.34.169.67.338 1.01.338l.51-1.012c.17-.337.33-.674.67-1.18.34-.506.68-.674 1.18-1.011.34-.338.85-.506 1.18-.675 1.52-.505 2.87-.505 4.22 0 1.18.506 2.03 1.686 2.54 3.203.5 1.517.33 3.372-.85 5.563l-4.39 8.429c.17.675 0 .843-.33.843z" fill="#717171"/><path d="M1073.22 202.058c1.39 0 2.53-1.132 2.53-2.528a2.536 2.536 0 0 0-5.07 0 2.536 2.536 0 0 0 2.54 2.528z" fill="#fff" stroke="#000" stroke-width=".411" stroke-miterlimit="10"/><path d="M1097.35 198.855c-.85-2.528-2.7-4.551-5.06-5.731-2.37-1.18-5.07-1.349-7.6-.506-2.53.843-4.56 2.697-5.74 5.057-2.02 4.215-1.01 8.935 2.37 11.969l-2.2 4.552c-.17.337-.17.506 0 .843.17.337.34.506.51.674l2.7 1.18c.34.169.5.169.84 0 .34-.168.51-.337.68-.505l2.19-4.552c1.86.337 3.55.337 5.23-.337 2.53-.843 4.56-2.697 5.74-5.058 1.01-2.36 1.18-5.057.34-7.586zm-11.82 12.644-2.86 5.057-3.04-2.191 2.19-5.058-3.2-7.08 8.1 2.36 5.06 5.057-6.25 1.855z" fill="#000"/><path d="m1078.62 202.058 3.2 7.081-2.19 5.226 3.04 2.023 2.86-4.889 6.08-2.023-4.89-5.058-8.1-2.36z" fill="#000"/><path d="M741.939 261.735c-17.214 0-31.052 3.203-31.052 7.249 0 4.046 14.007 7.249 31.052 7.249 17.213 0 31.052-3.203 31.052-7.249.168-3.877-13.839-7.249-31.052-7.249z" fill="#E7E7E7"/><path d="M712.406 227.514c-.844.169-1.688.337-2.532.843-.506.168-.844.506-1.181.843-1.688 1.348-2.7 3.371-3.038 5.731-.844 5.395 1.688 12.812 6.919 19.218 1.519 1.855 3.038 3.035 4.894 3.709-.843 1.012-1.35 2.192-1.35 3.54 0 2.866 2.363 5.395 5.401 5.395 2.362 0 4.219-1.349 5.062-3.372.169-.506.338-1.18.338-1.854 0-1.18-.338-2.36-1.013-3.203 5.232-1.18 4.726-4.552 7.595-6.743l-.844-12.981c-6.413-7.923-14.514-12.138-20.251-11.126zM778.897 235.1c-.337-2.529-1.35-4.552-3.037-5.9-.338-.338-.844-.506-1.182-.843-.843-.337-1.687-.675-2.531-.843-5.738-1.012-14.007 3.203-20.082 10.789l-.844 12.98c2.869 2.361 2.362 5.564 7.594 6.744-.675.843-1.013 2.023-1.013 3.203 0 .674.169 1.348.338 2.023.844 2.023 2.7 3.371 5.063 3.371 3.037 0 5.4-2.36 5.4-5.394 0-1.349-.506-2.529-1.35-3.541 1.688-.674 3.375-1.854 4.894-3.708 5.063-6.238 7.594-13.487 6.75-18.881z" fill="#A1A1A1"/><path d="m762.528 223.805-2.025-2.528c-4.388-4.889-10.97-8.092-18.227-8.092-7.256 0-13.669 3.034-18.226 8.092l-2.025 2.528c-2.7 3.878-4.219 8.598-4.219 13.655 0 4.383 1.182 8.429 3.207 11.969 1.856 3.372 4.556 6.069 7.763 8.261 3.037 2.022 6.75 3.371 10.632 3.877 1.012.168 1.856.168 2.868.168 1.013 0 2.026 0 2.869-.168 3.882-.506 7.595-1.855 10.632-3.877 3.207-2.023 5.738-4.889 7.763-8.261 2.025-3.54 3.207-7.586 3.207-11.969 0-5.057-1.688-9.609-4.219-13.655z" fill="#A1A1A1"/><path d="M742.951 259.544c-4.894 0-9.45-.506-13.332-1.349 2.869 1.855 6.244 3.035 9.788 3.372 1.013.168 1.857.168 2.869.168 1.013 0 2.025 0 2.869-.168 3.375-.337 6.413-1.517 9.282-3.035-3.544.675-7.425 1.012-11.476 1.012z" fill="#606060"/><path d="M742.614 207.453h-.506v7.755h5.4l3.544 5.057v38.605c0 .674-.338 1.011-.675 1.517-1.013 1.18-1.688 2.697-1.688 4.383a6.407 6.407 0 0 0 6.413 6.406 6.407 6.407 0 0 0 6.413-6.406c0-.506 0-1.012-.169-1.517-.168-.675.338-1.18 1.013-1.855 6.582-5.563 10.632-13.823 10.632-23.095-.169-16.858-13.67-30.513-30.377-30.85z" fill="#C5C5C5"/><path d="M735.357 224.311c-1.35 3.203-6.75 13.318-7.088 19.049-.168 3.372 6.751 16.858-2.531 14.835-6.413-1.348-14.176-6.237-14.176-22.589 0-16.353 17.045-28.153 30.208-28.153 11.982.169-6.413 16.858-6.413 16.858z" fill="#C5C5C5"/><path d="M746.495 194.978c0 2.36-1.856 4.215-4.219 4.215-2.363 0-4.219-1.855-4.219-4.215s1.856-4.046 4.219-4.046c2.363 0 4.219 1.855 4.219 4.046z" fill="#202020"/><path d="M758.646 212.342c0 8.934-7.257 16.183-16.37 16.183-9.113 0-16.369-7.249-16.369-16.183 0-8.935 7.256-16.184 16.369-16.184s16.37 7.249 16.37 16.184z" fill="#D0D0D0"/><path d="M732.657 215.376c0-.674.675-1.348 1.35-1.348s1.35.674 1.35 1.348h-2.7zM749.195 215.376c0-.674.675-1.348 1.35-1.348s1.351.674 1.351 1.348h-2.701z" fill="#222"/><path d="M748.014 222.457a3.265 3.265 0 0 1-1.688-.506 2.623 2.623 0 0 1-1.012-1.349 2.867 2.867 0 0 1 0-1.686 2.624 2.624 0 0 1 1.012-1.348c-.506 1.011-.675 2.023-.337 2.866.337.842 1.013 1.517 2.025 2.023z" fill="#A1A1A1"/><path d="M746.158 220.602c-.506.674-1.013.843-1.688 1.18-.675.169-1.181.337-1.856.337-1.181.169-2.531-.168-3.375-.843 1.181.506 2.194.338 3.375.169l1.519-.506a1.72 1.72 0 0 0 1.012-.843l1.013.506z" fill="#A1A1A1"/><path d="M742.276 190.932c2.363 0 4.219 1.855 4.219 4.046 0 .506-.168 1.18-.337 1.686 7.088 1.686 12.488 8.092 12.488 15.678 5.569 3.54 9.957 8.766 12.32 15.003.506 0 .843 0 1.35.169.843.169 1.687.337 2.531.843.506.168.844.506 1.181.843 1.688 1.348 2.701 3.371 3.038 5.9.675 5.395-1.688 12.643-6.919 19.218-1.519 1.854-3.038 3.034-4.894 3.709.844 1.011 1.35 2.191 1.35 3.54 0 2.866-2.363 5.394-5.4 5.394-.675 0-1.35-.168-1.857-.337-.675 2.697-3.206 4.72-6.244 4.72a6.406 6.406 0 0 1-6.413-6.406c0-1.517.507-3.034 1.519-4.214-1.519.506-3.206.843-4.894 1.011-1.013.169-1.856.169-2.869.169-1.012 0-2.025 0-2.869-.169-3.713-.505-7.088-1.685-10.125-3.54-.507.169-1.182.337-1.857.337-.506 0-1.012 0-1.687-.168.675.843 1.012 2.023 1.012 3.203 0 .674-.169 1.348-.337 1.854-.844 2.023-2.701 3.372-5.063 3.372-3.038 0-5.401-2.36-5.401-5.395 0-1.348.507-2.528 1.351-3.54-1.688-.674-3.376-1.854-4.894-3.709-5.232-6.574-7.763-13.823-6.92-19.218.338-2.36 1.35-4.383 3.038-5.731.338-.337.844-.506 1.181-.843a8.919 8.919 0 0 1 2.532-.843c.337 0 .506 0 .844-.169 2.362-6.237 7.088-11.463 12.657-15.003 0-7.586 5.4-13.992 12.488-15.847-.169-.505-.338-1.011-.338-1.685 0-2.023 1.857-3.878 4.219-3.878zm0-3.371c-3.881 0-7.088 3.034-7.425 6.743-3.038 1.18-5.907 3.203-7.932 5.9-2.362 3.035-3.881 6.575-4.219 10.452-5.231 3.709-9.45 8.429-11.813 13.824-.844.168-1.688.505-2.363.842-.675.338-1.181.675-1.856 1.18-2.363 1.855-3.713 4.552-4.219 7.924-.506 3.203 0 6.911 1.35 10.789 1.35 3.708 3.544 7.586 6.244 11.126.844 1.18 2.025 2.191 3.038 2.866-.169.674-.338 1.348-.338 2.191 0 4.72 3.882 8.598 8.776 8.598 3.544 0 6.919-2.192 8.1-5.563a4.66 4.66 0 0 0 .507-2.192c2.7 1.349 5.737 2.192 8.775 2.529 1.181.168 2.194.168 3.375.168 1.013 0 1.857 0 2.869-.168a9.723 9.723 0 0 0 9.788 9.44c3.376 0 6.413-1.686 8.101-4.383 4.725 0 8.607-3.877 8.607-8.597 0-.675-.169-1.518-.338-2.192 1.181-.843 2.194-1.854 3.038-2.866 2.7-3.371 4.894-7.249 6.244-10.957 1.35-3.878 1.856-7.586 1.35-10.789-.506-3.372-2.025-6.238-4.219-8.092-.506-.506-1.181-.843-1.688-1.18-.843-.506-1.856-.843-3.037-1.012a34.775 34.775 0 0 0-11.307-13.823c-.338-3.709-1.857-7.418-4.219-10.283-2.025-2.529-4.894-4.552-7.932-5.901-.169-3.54-3.375-6.574-7.257-6.574z" fill="#fff"/><path d="M726.919 241.506c5.063-.337 7.594 4.383 7.088 8.26-.338 4.046-3.207 10.284-9.113 8.092-2.363-.843-2.531-6.912-2.194-10.283.338-3.203 1.181-5.901 4.219-6.069z" fill="#C5C5C5"/><path d="M726.919 241.506c5.738-1.012 7.594 4.383 7.088 8.26-.337 4.046-3.206 10.284-9.113 8.092" fill="#C5C5C5"/><path d="M745.314 232.234v1.18c0 1.686-.675 3.203-1.688 4.383l-1.518 1.517c-.676.506-1.519.843-2.363 1.012-.169 0-.506.169-.675.169h-.675V239.146c0-.337 0-.506.169-.843a8.15 8.15 0 0 1 .675-1.854c.337-.506.675-1.18 1.181-1.518.506-.505 1.012-1.011 1.519-1.348.675-.506 1.519-.843 2.362-1.18.169 0 .507-.169.675-.169 0 .169.169.169.338 0z" fill="url(#g)"/><path d="M753.077 257.015c-.675-.337-1.35-.674-1.856-1.18-.675-.506-1.182-1.18-1.688-1.854-.506-.674-.844-1.517-1.013-2.192-.168-.337-.168-.843-.168-1.18v-.843c0-1.011.337-1.854.675-2.697.337-.674.844-1.349 1.519-2.023.506-.506 1.012-1.011 1.687-1.348-.675-.843-1.519-1.686-2.531-2.192-.675-.337-1.35-.674-2.194-.843-.338 0-.506-.168-.844-.168h-2.363c-.843 0-1.518.168-2.193.505-.338.169-.675.337-1.013.337-.338.169-.506.169-.844.338-.337.168-.506.168-.844.168h-.675c-.168 0-.506 0-.675-.168-.337-.169-.675-.169-1.012-.338-.338-.168-.675-.337-1.013-.337-.506-.168-.844-.337-1.35-.337-.337 0-.844-.168-1.181-.168h-.844c-.338 0-.675 0-.844.168-1.35.169-2.362.674-3.544 1.349 4.05.505 5.401 5.057 5.063 8.597-.338 3.878-2.363 8.598-7.594 7.923.169.338.337.843.506 1.181.506 1.011 1.013 2.022 1.688 2.865.337.675.843 1.18 1.35 1.855.506.505 1.012 1.011 1.519 1.348.506.338.843.506 1.35.675.337 0 .506.168.843.168H733.838c.169 0 .507 0 .675-.168.338 0 .675-.169 1.013-.337.506-.169 1.181-.506 1.687-.675.338-.168.676-.168 1.013-.168h1.688c.506 0 .843.168 1.181.337l1.519.506c.506.168.844.337 1.35.337.169 0 .337 0 .675.168h.675c.506 0 1.013-.168 1.35-.505.506-.169.844-.506 1.181-.843a8.007 8.007 0 0 0 1.688-1.686c1.35-1.517 2.363-3.372 3.206-5.226.169-.337.169-.506.338-.843.169-.337.169-.337 0-.506.169 0 .169 0 0 0 .169 0 0 0 0 0z" fill="url(#h)"/><defs><linearGradient id="a" x1="522.382" y1="259.544" x2="575.461" y2="259.544" gradientUnits="userSpaceOnUse"><stop stop-color="#E6E6E6"/><stop offset=".081" stop-color="#CFCFCF"/><stop offset=".188" stop-color="#B7B7B7"/><stop offset=".302" stop-color="#A6A6A6"/><stop offset=".427" stop-color="#9C9C9C"/><stop offset=".583" stop-color="#999"/><stop offset=".597" stop-color="#A1A1A1"/><stop offset=".648" stop-color="#BABABA"/><stop offset=".705" stop-color="#CECECE"/><stop offset=".771" stop-color="#DCDCDC"/><stop offset=".853" stop-color="#E4E4E4"/><stop offset="1" stop-color="#E6E6E6"/></linearGradient><linearGradient id="b" x1="515.125" y1="229.284" x2="560.916" y2="229.284" gradientUnits="userSpaceOnUse"><stop offset=".075" stop-color="#E6E6E6"/><stop offset=".157" stop-color="#F2F2F2"/><stop offset=".287" stop-color="#FCFCFC"/><stop offset=".492" stop-color="#FCFCFC"/><stop offset=".763" stop-color="#F2F2F2"/><stop offset="1" stop-color="#E6E6E6"/></linearGradient><linearGradient id="c" x1="515.125" y1="229.284" x2="560.916" y2="229.284" gradientUnits="userSpaceOnUse"><stop offset=".02" stop-color="#CACACA"/><stop offset=".7" stop-color="#565656" stop-opacity=".43"/><stop offset="1" stop-color="#979797"/></linearGradient><linearGradient id="d" x1="515.125" y1="261.061" x2="560.916" y2="261.061" gradientUnits="userSpaceOnUse"><stop stop-color="#E6E6E6"/><stop offset=".117" stop-color="#F2F2F2"/><stop offset=".287" stop-color="#FCFCFC"/><stop offset=".5" stop-color="#fff"/><stop offset=".713" stop-color="#FCFCFC"/><stop offset=".883" stop-color="#F2F2F2"/><stop offset="1" stop-color="#E6E6E6"/></linearGradient><linearGradient id="e" x1="409.816" y1="208.271" x2="426.604" y2="208.271" gradientUnits="userSpaceOnUse"><stop stop-color="#BEBEBE"/><stop offset="1" stop-color="#5E5E5E"/></linearGradient><linearGradient id="f" x1="396.103" y1="218.722" x2="396.103" y2="196.851" gradientUnits="userSpaceOnUse"><stop stop-color="#BEBEBE"/><stop offset="1" stop-color="#898989"/></linearGradient><linearGradient id="g" x1="741.853" y1="232.308" x2="741.853" y2="240.567" gradientUnits="userSpaceOnUse"><stop stop-color="#fff"/><stop offset=".586" stop-color="#F9F9F9"/><stop offset="1" stop-color="#F1F1F1"/></linearGradient><linearGradient id="h" x1="739.37" y1="240.119" x2="739.37" y2="266.24" gradientUnits="userSpaceOnUse"><stop stop-color="#fff"/><stop offset=".586" stop-color="#F9F9F9"/><stop offset="1" stop-color="#F1F1F1"/></linearGradient></defs></svg>