<svg width="1076" height="520" fill="none" xmlns="http://www.w3.org/2000/svg"><path d="M527.386 239.519c-3.894-8.202-8.198-15.79-12.912-23.172-28.488-44.705-69.683-72.799-115.387-72.799-45.908 0-87.103 28.094-115.386 72.799-4.509 7.177-8.813 14.765-12.707 22.967-17.011 35.272-27.054 77.721-27.054 123.656 0 39.373 7.379 76.491 20.29 108.481 12.093 29.735 28.898 55.163 48.983 74.235 19.881 18.661 42.835 31.17 67.634 35.271 6.148 1.026 12.297 1.641 18.445 1.641 6.354 0 12.502-.615 18.446-1.641 24.799-4.101 47.753-16.61 67.633-35.271 20.085-18.867 36.891-44.295 48.778-74.03 12.912-31.99 20.29-68.903 20.29-108.481 0-45.935-10.042-88.384-27.053-123.656z" fill="#C99E49"/><path d="M399.087 405.214c-7.993 0-14.551 3.691-14.551 8.203v.82c.82 4.102 6.968 7.383 14.551 7.383 7.584 0 13.732-3.281 14.552-7.383v-.82c.205-4.512-6.354-8.203-14.552-8.203z" fill="#A07A38"/><path d="m400.932 106.635.205-.41C292.923 106.225 205 193.994 205 302.475c0 59.265 26.234 112.377 67.838 148.264 4.304 3.897 7.174 7.178 6.149 11.689a40.878 40.878 0 0 0-1.23 10.049c0 22.762 18.446 41.013 40.99 41.013 22.545 0 40.99-18.456 40.99-41.013 0-10.664-4.099-20.302-10.862-27.685-2.46-3.076-4.509-5.536-4.509-9.433V187.842l22.134-31.99h64.765l22.339 32.195v247.517c0 3.897-2.049 6.357-4.509 9.433-6.763 7.383-10.862 17.021-10.862 27.685 0 22.557 18.445 41.013 40.99 41.013 22.749 0 40.99-18.456 40.99-41.013 0-3.487-.41-6.768-1.23-10.049-.82-4.716 2.05-7.792 6.149-11.689 41.604-35.886 67.838-88.999 67.838-148.264.205-107.045-85.464-193.994-192.038-196.045z" fill="#EAC664"/><path d="M425.731 26.454c0 14.56-11.887 26.453-26.439 26.453-14.551 0-26.438-11.893-26.438-26.453C372.854 11.894 384.741 0 399.292 0c14.552 0 26.439 11.894 26.439 26.454z" fill="#896F00"/><path d="M503.202 138.011c0 57.419-46.524 103.969-103.91 103.969-57.386 0-103.909-46.55-103.909-103.969 0-57.42 46.523-103.97 103.909-103.97s103.91 46.55 103.91 103.97z" fill="#EFD081"/><path d="M370.599 172.257c3.485 12.714 14.962 21.942 28.488 21.942 13.732 0 25.209-9.228 28.488-21.942h-56.976z" fill="#fff"/><path d="M337.807 156.877c0-4.717 3.894-8.613 8.608-8.613s8.608 3.896 8.608 8.613h-17.216zM443.357 156.877c0-4.717 3.894-8.613 8.607-8.613 4.714 0 8.608 3.896 8.608 8.613h-17.215z" fill="#222"/><path d="M822.577 364.671c-16.357-45.851.825-90.292-28.458-182.595 30.348 30.7 50.162 171.089 41.314 184.714" fill="#8CC63F"/><path d="M859.587 352.722c3.592-52.815-28.825-93.883-25.558-199.088-23.481 41.306-1.585 193.743 12.244 205.237" fill="#8CC63F"/><path d="M862.32 357.712c20.716-48.156 5.337-97.027 43.184-194.207-34.666 30.858-65.559 180.356-57.242 195.659M801.104 368.299C771.54 324.293 772 225 732 216c34.5-14.5 96.257 132.8 86.9 150.383" fill="#8CC63F"/><path d="M860.631 335.901C857.967 313.959 921 229 873.748 190.5c51.752 31.5-4.919 134.533 0 151.143l-13.117-5.742zM833.868 342.484c3.715-24.9-72.584-106.35-42.007-168.484-36.292 41.888 30.577 156.15 23.718 175l18.289-6.516z" fill="#8CC63F"/><path d="M875.07 353.537h-88.949l20.495 72.184h47.754l20.7-72.184zM879.169 329.749h-97.147v23.583h97.147v-23.583z" fill="#F15A24"/><path opacity=".3" d="m786.121 353.537.82 3.281h87.104l1.025-3.281h-88.949z" fill="#000"/><path d="M235.538 378.555v2.666a7.787 7.787 0 0 0 7.788 7.793h2.664c-5.739 0-10.452-4.717-10.452-10.459zM548.496 389.014h2.664a7.787 7.787 0 0 0 7.788-7.793v-2.666c0 5.742-4.714 10.459-10.452 10.459z" fill="#CECFC8"/><path d="M548.496 166.105H245.99c-5.739 0-10.452 4.717-10.452 10.458V378.555c0 5.742 4.713 10.459 10.452 10.459h302.506c5.738 0 10.452-4.717 10.452-10.459V176.563c0-5.741-4.714-10.458-10.452-10.458z" fill="gray"/><path d="M444.996 423.67s-5.738-1.23-6.968-1.435c-1.435-.205-4.919-.205-5.944-5.537l-3.279-100.688-31.767-3.692-31.767 3.692-3.279 100.688c-1.025 5.332-4.509 5.332-5.944 5.537-1.435.205-6.968 1.435-6.968 1.435-2.46.821-1.64 2.051 0 2.051h95.916c1.64 0 2.46-1.23 0-2.051z" fill="url(#a)"/><path d="M1076 426H0v29h1076v-29zM1050 455H22v307h36.903v-26.062H1013.1V762h36.9V455z" fill="#E6E6E6"/><path opacity=".3" d="M1050 455H22v11h1028v-11z" fill="#000"/><defs><linearGradient id="a" x1="397.038" y1="425.8" x2="397.038" y2="312.398" gradientUnits="userSpaceOnUse"><stop stop-color="gray"/><stop offset=".448" stop-color="#828282"/><stop offset=".609" stop-color="#898989"/><stop offset=".724" stop-color="#949494"/><stop offset=".817" stop-color="#A5A5A5"/><stop offset=".897" stop-color="#BBB"/><stop offset=".966" stop-color="#D6D6D6"/><stop offset="1" stop-color="#E6E6E6"/></linearGradient></defs></svg>